<svg width="15" height="25" viewBox="0 0 15 25" fill="none" xmlns="http://www.w3.org/2000/svg">
<path d="M0.980638 0.489264C1.13198 0.334173 1.31177 0.211126 1.50971 0.127171C1.70764 0.0432167 1.91984 0 2.13414 0C2.34844 0 2.56064 0.0432167 2.75858 0.127171C2.95651 0.211126 3.1363 0.334173 3.28764 0.489264L14.1188 11.5606C14.2397 11.6838 14.3355 11.8302 14.4009 11.9914C14.4663 12.1526 14.5 12.3253 14.5 12.4998C14.5 12.6743 14.4663 12.8471 14.4009 13.0083C14.3355 13.1694 14.2397 13.3158 14.1188 13.4391L3.28764 24.5104C2.64898 25.1632 1.6193 25.1632 0.980638 24.5104C0.341975 23.8576 0.341975 22.8051 0.980638 22.1522L10.4172 12.4932L0.967606 2.83409C0.341977 2.19459 0.341975 1.12876 0.980638 0.489264Z" fill="#308D8D"/>
</svg>
