<svg width="15" height="25" viewBox="0 0 15 25" fill="none" xmlns="http://www.w3.org/2000/svg">
<path d="M14.0194 0.489264C13.868 0.334173 13.6882 0.211126 13.4903 0.127171C13.2924 0.0432167 13.0802 0 12.8659 0C12.6516 0 12.4394 0.0432167 12.2414 0.127171C12.0435 0.211126 11.8637 0.334173 11.7124 0.489264L0.881169 11.5606C0.76034 11.6838 0.664479 11.8302 0.599073 11.9914C0.533667 12.1526 0.5 12.3253 0.5 12.4998C0.5 12.6743 0.533667 12.8471 0.599073 13.0083C0.664479 13.1694 0.76034 13.3158 0.881169 13.4391L11.7124 24.5104C12.351 25.1632 13.3807 25.1632 14.0194 24.5104C14.658 23.8576 14.658 22.8051 14.0194 22.1522L4.5828 12.4932L14.0324 2.83409C14.658 2.19459 14.658 1.12876 14.0194 0.489264Z" fill="#308D8D"/>
</svg>
