<svg width="59" height="58" viewBox="0 0 59 58" fill="none" xmlns="http://www.w3.org/2000/svg">
<path d="M42.3414 3.33816C42.3895 3.35233 42.4373 3.36684 42.4869 3.38136C42.9838 3.54034 43.4532 3.75808 43.7388 4.16245C43.7541 4.1825 43.7689 4.20255 43.7846 4.22294C43.9892 4.506 44.0158 4.80703 43.9833 5.13537C43.9348 5.25011 43.8836 5.32338 43.7975 5.41808C43.7283 5.55599 43.7842 5.64481 43.839 5.77753C44.0764 6.45839 44.0553 7.38119 43.7486 8.03787C43.7318 8.07381 43.7318 8.07381 43.715 8.11079C43.5475 8.45987 43.3198 8.75019 43.046 9.0405C43.0237 9.06608 43.0014 9.09131 42.9783 9.11758C42.6771 9.44764 42.2272 9.72241 41.7929 9.90559H41.6756C41.6783 9.88036 41.6811 9.85513 41.6842 9.82886C41.7409 9.24476 41.7542 8.65376 41.6365 8.07312C41.6181 8.08694 41.5993 8.10077 41.5805 8.11494C41.1854 8.39489 40.7785 8.42496 40.2856 8.4253C40.2418 8.42565 40.1984 8.426 40.1534 8.42669C39.4688 8.42772 39.4688 8.42772 39.2106 8.3154C39.2931 8.44362 39.387 8.55491 39.4918 8.66793C40.1334 9.42138 40.3525 10.4168 40.3486 11.343C40.3486 11.3814 40.3486 11.4197 40.3486 11.4595C40.3486 11.5407 40.3486 11.6219 40.3482 11.7031C40.3478 11.8248 40.3482 11.9461 40.3486 12.0695C40.3486 12.4359 40.3443 12.7988 40.3212 13.1651C40.3005 13.5052 40.3122 13.8391 40.3349 14.1812C40.3455 14.3433 40.3545 14.5051 40.3639 14.6685C40.3658 14.7 40.3674 14.7311 40.3693 14.7632C40.3889 15.1158 40.3932 15.4648 40.383 15.8174C40.3822 15.8533 40.3811 15.8896 40.3803 15.9269C40.367 16.397 40.3419 16.8636 40.3099 17.3336C40.3071 17.3751 40.3048 17.4169 40.302 17.4598C40.2707 17.8883 40.2348 18.2927 39.8834 18.6107C39.7336 18.6998 39.6237 18.7327 39.4453 18.7209C39.3479 18.6936 39.2638 18.6573 39.1714 18.6172H39.0541C39.0513 18.6497 39.0482 18.6826 39.0451 18.7161C38.9891 19.1999 38.8025 19.5628 38.3878 19.8946C38.035 20.1404 37.6133 20.2022 37.1751 20.2403C37.1802 20.2589 37.1849 20.2776 37.19 20.2969C37.3899 21.0711 37.418 21.8349 37.4098 22.6264C37.5205 22.6544 37.5917 22.6603 37.7107 22.6568C37.8597 22.6544 37.9955 22.6731 38.141 22.7C38.9704 22.8517 39.655 22.6952 40.4061 22.39C40.4354 22.3782 40.4644 22.3665 40.4945 22.354C40.5798 22.3167 40.5798 22.3167 40.6592 22.2607C40.7629 22.1926 40.8403 22.1816 40.9687 22.1771C41.1322 22.2376 41.21 22.3115 41.2816 22.4536C41.3016 22.5462 41.3118 22.6357 41.3208 22.7301C41.2852 22.7076 41.2852 22.7076 41.2492 22.6848L41.1545 22.6264L41.061 22.568C40.9636 22.5113 40.9636 22.5113 40.8122 22.5227C40.8102 22.5549 40.8083 22.587 40.8059 22.6202C40.7652 23.0142 40.7652 23.0142 40.6041 23.149C40.2954 23.3467 39.8686 23.4196 39.493 23.432C39.4304 23.4341 39.4304 23.4341 39.3667 23.4365C39.3236 23.4379 39.2802 23.4393 39.236 23.4407C39.1922 23.4421 39.1484 23.4438 39.103 23.4452C38.995 23.449 38.887 23.4524 38.7787 23.4559C38.7618 23.488 38.7618 23.488 38.7442 23.5209C38.6347 23.704 38.4301 23.7714 38.22 23.8357C38.0283 23.8824 37.8355 23.9162 37.641 23.9487C37.6046 23.9546 37.5683 23.9608 37.5307 23.967C37.332 23.9982 37.143 24.0144 36.94 24.0106C36.8375 24.0089 36.7369 24.0144 36.6348 24.0223C36.6 24.0248 36.5648 24.0272 36.5288 24.0296C36.4322 24.0389 36.4322 24.0389 36.3579 24.0794C36.2389 24.1281 36.1345 24.1222 36.0038 24.1219C35.9565 24.1222 35.9095 24.1222 35.861 24.1226C35.7311 24.1136 35.6513 24.087 35.532 24.0441C35.4369 24.0344 35.3415 24.0272 35.246 24.0223C35.1971 24.0199 35.1478 24.0172 35.0974 24.0144C35.0602 24.0127 35.0227 24.0109 34.9843 24.0092C34.9456 24.0891 34.9069 24.1689 34.867 24.2511L34.7105 24.2166L34.6714 24.0092C34.3623 24.0984 34.155 24.2933 33.9281 24.4931C33.9281 24.2992 34.0172 24.1558 34.1385 23.9988C34.2289 23.8786 34.2997 23.7669 34.356 23.6325C34.4245 23.4853 34.5125 23.4351 34.6753 23.3733C34.7496 23.3539 34.7496 23.3539 34.867 23.3539C34.8259 23.2267 34.8259 23.2267 34.7152 23.1466L34.6322 23.112C34.4832 22.9689 34.401 22.8479 34.3928 22.6523L34.3979 22.5593C34.2265 22.6368 34.0834 22.7242 33.9363 22.8338C33.7469 22.9737 33.5505 23.1023 33.3495 23.2278C32.7861 23.5768 32.7861 23.5768 32.2775 23.9812C32.2419 24.0134 32.2063 24.0455 32.17 24.0783H32.0917C32.0815 24.0984 32.0714 24.1184 32.0608 24.1388C32.0107 24.2211 31.9528 24.2836 31.884 24.3548C31.627 24.6403 31.4732 24.9908 31.5049 25.3571C31.5288 25.4923 31.5593 25.6264 31.5894 25.7615C32.1958 28.4711 32.3288 31.3259 32.0236 34.0909C32.0135 34.1821 32.0037 34.273 31.9943 34.3643C31.8992 35.2491 31.7471 36.12 31.564 36.9944C31.5158 37.2263 31.4709 37.4576 31.427 37.6926C31.4087 37.7883 31.3907 37.884 31.3723 37.9801C31.3609 38.041 31.3496 38.1014 31.3382 38.1623C31.3226 38.2456 31.3069 38.3292 31.2905 38.4125C31.2862 38.437 31.2819 38.4616 31.2772 38.4868C31.251 38.6188 31.2236 38.7163 31.1129 38.811C30.9552 38.8317 30.8727 38.8307 30.7389 38.7519C30.4263 38.492 30.3919 38.0468 30.332 37.6874C30.3223 37.6328 30.3125 37.5782 30.3027 37.5236C30.2726 37.3539 30.2436 37.1838 30.2147 37.0121C30.2076 36.9716 30.2076 36.9716 30.2006 36.9301C30.1032 36.3564 30.0159 35.7827 29.9479 35.2055C29.9432 35.1651 29.9381 35.125 29.933 35.0835C29.9009 34.7925 29.8962 34.5063 29.9013 34.2125H29.784C29.7844 34.2789 29.7844 34.2789 29.7847 34.347C29.7914 35.9403 29.7695 37.5336 29.6729 39.1165C29.667 39.2161 29.6611 39.3156 29.6553 39.4151C29.5887 40.5246 29.4843 41.634 29.354 42.74C29.3501 42.7735 29.3462 42.807 29.3423 42.8416C29.1752 44.2586 28.9315 45.6653 28.6107 47.0581C28.6056 47.0809 28.6002 47.1041 28.5947 47.1276C28.2884 48.4548 28.2884 48.4548 27.867 48.7866C27.7274 48.8484 27.5885 48.8464 27.4367 48.8211C27.2485 48.7323 27.1198 48.6072 27.0455 48.4306C27.0071 48.2747 26.9993 48.1226 26.9997 47.964C26.9997 47.937 26.9997 47.9101 27.0001 47.8824C27.0044 47.5092 27.0392 47.1393 27.0725 46.7661C27.076 46.7267 27.0795 46.6873 27.083 46.6465C27.2094 45.2122 27.3604 43.7779 27.6307 42.3608L27.5916 42.4645H27.5134C27.5083 42.5043 27.5032 42.544 27.4981 42.5848C27.477 42.7344 27.4433 42.8799 27.4058 43.0272C27.3991 43.0541 27.3921 43.0814 27.3851 43.1091C27.3702 43.1675 27.3557 43.2259 27.3409 43.2843C27.3002 43.4443 27.2603 43.6044 27.2204 43.7647C27.2078 43.8142 27.2078 43.8142 27.1953 43.865C27.1284 44.1325 27.0635 44.4007 26.9993 44.6668C26.4008 47.1691 25.7279 49.6437 24.922 52.1321C24.9107 52.1674 24.8989 52.2023 24.8872 52.2386C24.7765 52.5776 24.6634 52.916 24.5312 53.2478C24.5175 53.2827 24.5175 53.2827 24.5034 53.3183C24.4009 53.5699 24.2968 53.8125 24.0261 53.9473C23.7977 54.0102 23.5919 54.0299 23.3728 53.9321C23.1995 53.8156 23.1381 53.6881 23.0943 53.5036C23.0857 53.3916 23.0872 53.2792 23.0876 53.1669C23.0876 53.1334 23.0876 53.0999 23.0876 53.0653C23.0911 52.6782 23.1248 52.2946 23.1627 51.9109C23.1662 51.874 23.1698 51.837 23.1733 51.799C23.2719 50.7725 23.4213 49.7356 23.721 48.7368L23.6819 48.8059H23.6036C23.5962 48.8429 23.5962 48.8429 23.5884 48.8806C23.3329 49.9243 22.7121 50.9716 22.2152 51.9393C22.1542 52.0602 22.0959 52.1823 22.038 52.3056C21.849 52.6962 21.5803 53.225 21.1382 53.4393C20.9766 53.479 20.8628 53.4576 20.7157 53.3853C20.4677 53.141 20.4677 52.8358 20.4669 52.5282C20.4665 52.4812 20.4665 52.4812 20.4665 52.4335C20.4544 49.3575 21.5306 46.2124 22.5477 43.171C22.5603 43.1329 22.5728 43.0953 22.5861 43.0562C22.8572 42.244 23.1299 41.4318 23.4311 40.6265C23.4878 40.4741 23.5434 40.3213 23.5993 40.1703C24.1235 38.736 24.6673 37.312 25.2972 35.9192C25.3903 35.7118 25.4822 35.5045 25.5741 35.2971C25.5886 35.2646 25.6027 35.2321 25.6176 35.1986C25.6461 35.1336 25.6751 35.0683 25.7036 35.0033C25.7705 34.8519 25.8374 34.7002 25.9043 34.5506C25.9161 34.5243 25.9274 34.4984 25.9391 34.4714C25.9501 34.4469 25.9607 34.4227 25.9716 34.3975C25.9814 34.375 25.9916 34.3522 26.0017 34.329C26.0256 34.2758 26.0506 34.2226 26.0761 34.17C26.114 34.0919 26.114 34.0919 26.1074 33.991C26.0647 33.9896 26.0647 33.9896 26.0213 33.9882C25.7858 33.9761 25.6262 33.9606 25.4423 33.8182L25.3492 33.7491C25.161 33.4422 25.3171 32.9472 25.3688 32.612C25.3731 32.5833 25.3774 32.5543 25.3821 32.5249C25.5808 31.2254 25.8789 29.8464 26.4735 28.6194C26.5103 28.5475 26.5103 28.5475 26.4606 28.4794C26.3084 28.5541 26.1887 28.6398 26.0616 28.7452C25.8625 28.9077 25.6547 29.0577 25.4435 29.2049C25.4153 29.2253 25.3871 29.2457 25.3582 29.2664C24.8379 29.6431 24.2863 29.9887 23.7229 30.3102C23.6944 30.3264 23.6662 30.3427 23.6369 30.3596C23.2183 30.5988 22.7958 30.8227 22.3576 31.0301C22.2813 31.0667 22.205 31.1037 22.1291 31.141C21.8479 31.2779 21.5619 31.402 21.2685 31.5212C21.2172 31.5423 21.2172 31.5423 21.1652 31.5637C21.1331 31.5765 21.1014 31.5893 21.0686 31.6021C21.04 31.6135 21.0119 31.6249 20.9825 31.6367C20.9066 31.657 20.9066 31.657 20.7893 31.6225C20.8542 31.4161 20.9692 31.2354 21.085 31.0488C21.1061 31.0149 21.1269 30.981 21.1488 30.9461C21.3941 30.5556 21.6808 30.203 22.0016 29.8574L21.9159 29.92C21.806 29.9957 21.806 29.9957 21.7106 30.0451C21.5881 30.1111 21.4833 30.1913 21.3757 30.2742C21.0044 30.5556 20.6128 30.8134 20.2177 31.0657C20.1723 31.0951 20.1723 31.0951 20.1258 31.1248C20.0827 31.1521 20.0827 31.1521 20.0389 31.1801C20.0135 31.1963 19.9881 31.2126 19.9618 31.2295C19.7467 31.3557 19.555 31.3747 19.3007 31.3422C19.1763 31.2886 19.0894 31.2202 19.0358 31.1044C19.0026 30.8345 19.3469 30.5272 19.5249 30.3302C19.5808 30.2663 19.6371 30.2027 19.6931 30.1387C19.7201 30.108 19.7471 30.0772 19.7748 30.0454C19.8742 29.9307 19.9693 29.8135 20.0628 29.6964C20.2071 29.5146 20.3609 29.3438 20.5244 29.171C20.5999 29.0922 20.5999 29.0922 20.6735 28.991H20.5952L20.5659 29.0542C20.5084 29.1423 20.4583 29.1721 20.3605 29.2242C20.2263 29.2992 20.1035 29.3787 19.9814 29.4682C19.5198 29.7997 18.8195 30.2666 18.2249 30.353C18.1318 30.3378 18.1318 30.3378 18.061 30.2753C17.9158 29.9314 18.0559 29.5875 18.21 29.2661C18.3794 28.973 18.6208 28.7442 18.8751 28.5057C18.922 28.459 18.9682 28.4124 19.0143 28.3654C19.1145 28.2634 19.217 28.1628 19.3199 28.063C20.4505 26.9501 21.2798 25.6022 22.0896 24.2957C22.2133 24.0973 22.3384 23.8983 22.464 23.7013C22.4867 23.665 22.5098 23.629 22.5333 23.5917C22.5544 23.5582 22.5759 23.5247 22.5978 23.4897C22.6166 23.4604 22.635 23.431 22.6542 23.4009C22.6921 23.3422 22.732 23.2848 22.7739 23.2281C22.838 23.1396 22.838 23.1396 22.8255 23.0055C22.7829 22.9969 22.7398 22.9886 22.696 22.9796C22.5517 22.9364 22.5517 22.9364 22.4762 22.878C22.3435 22.6229 22.4988 22.325 22.5982 22.0796C22.8642 21.4506 23.2907 20.8907 23.7249 20.3446C23.7683 20.29 23.8114 20.2351 23.8544 20.1805C24.2808 19.6413 24.719 19.1056 25.1767 18.5837C25.4806 18.2346 25.7674 17.8821 26.0334 17.5088C26.051 17.4846 26.0682 17.4604 26.0862 17.4356C26.5361 16.81 26.9391 16.1568 27.3225 15.4966C27.4101 15.3456 27.5009 15.1984 27.6006 15.0543C27.6777 14.9426 27.7481 14.8303 27.8134 14.7128C27.921 14.5185 28.0427 14.3326 28.1667 14.146C28.1906 14.11 28.2144 14.0737 28.2391 14.0368C28.732 13.3006 29.2562 12.5782 29.7804 11.8594C29.8892 11.7097 29.9968 11.559 30.104 11.4066C30.3958 10.9988 30.6908 10.5909 30.9959 10.19C31.2663 9.83404 31.528 9.47114 31.7862 9.10825C31.8871 8.96481 31.9884 8.82173 32.0894 8.67968C32.1269 8.62645 32.1269 8.62645 32.1653 8.57219C32.3163 8.35895 32.4696 8.14708 32.6308 7.93971C32.682 7.87024 32.7247 7.80112 32.7646 7.72647C32.5979 7.7752 32.4923 7.84639 32.3656 7.95112C32.3143 7.99225 32.3143 7.99225 32.2623 8.03441C32.1782 8.10042 32.1782 8.10042 32.1406 8.17577H32.0624C32.1406 7.93176 32.2595 7.72301 32.4047 7.50527C32.4258 7.47313 32.4469 7.44099 32.4684 7.40815C33.1492 6.38167 34.002 5.41739 35.0739 4.68468C35.0989 4.66706 35.1244 4.64978 35.1506 4.6318C35.48 4.4037 35.8078 4.1825 36.1677 3.99241C36.2002 3.97409 36.2331 3.95543 36.2667 3.93642C36.9083 3.58389 37.6281 3.35578 38.3597 3.1968C38.4094 3.18574 38.4594 3.17502 38.5107 3.16362C38.6425 3.13701 38.7744 3.11385 38.9058 3.09311C38.9488 3.0862 38.9915 3.07894 39.0357 3.07168C40.1506 2.91754 41.2852 3.015 42.3492 3.33504L42.3414 3.33816Z" fill="white"/>
</svg>
