<svg width="57" height="57" viewBox="0 0 57 57" fill="none" xmlns="http://www.w3.org/2000/svg">
<path d="M7.125 28.5H28.5V32.0625H7.125V28.5ZM3.5625 19.5938H21.375V23.1562H3.5625V19.5938Z" fill="#308D8D"/>
<path d="M53.2932 29.5794L47.9495 17.1107C47.8124 16.7902 47.5841 16.5171 47.2931 16.3252C47.0021 16.1333 46.6611 16.0311 46.3125 16.0312H40.9688V12.4687C40.9688 11.9963 40.7811 11.5433 40.4471 11.2092C40.113 10.8752 39.6599 10.6875 39.1875 10.6875H10.6875V14.25H37.4063V36.6154C36.5946 37.0867 35.8843 37.714 35.3163 38.4612C34.7482 39.2084 34.3337 40.0606 34.0967 40.9687H22.9033C22.4698 39.2896 21.4387 37.8263 20.0034 36.853C18.5681 35.8797 16.8272 35.4633 15.1068 35.6818C13.3864 35.9003 11.8048 36.7387 10.6584 38.04C9.51205 39.3412 8.87958 41.0158 8.87958 42.75C8.87958 44.4842 9.51205 46.1588 10.6584 47.46C11.8048 48.7612 13.3864 49.5997 15.1068 49.8182C16.8272 50.0367 18.5681 49.6203 20.0034 48.647C21.4387 47.6737 22.4698 46.2104 22.9033 44.5312H34.0967C34.4842 46.06 35.3704 47.4159 36.615 48.3844C37.8596 49.3529 39.3917 49.8788 40.9688 49.8788C42.5458 49.8788 44.0779 49.3529 45.3225 48.3844C46.5672 47.4159 47.4533 46.06 47.8408 44.5312H51.6563C52.1287 44.5312 52.5818 44.3436 52.9158 44.0095C53.2499 43.6755 53.4375 43.2224 53.4375 42.75V30.2812C53.4376 30.0399 53.3885 29.8011 53.2932 29.5794ZM16.0313 46.3125C15.3267 46.3125 14.6379 46.1036 14.052 45.7121C13.4662 45.3207 13.0096 44.7643 12.7399 44.1133C12.4703 43.4623 12.3998 42.746 12.5372 42.055C12.6747 41.3639 13.014 40.7292 13.5122 40.2309C14.0104 39.7327 14.6452 39.3934 15.3363 39.2559C16.0273 39.1185 16.7436 39.189 17.3946 39.4587C18.0455 39.7283 18.6019 40.1849 18.9934 40.7708C19.3848 41.3566 19.5938 42.0454 19.5938 42.75C19.5928 43.6945 19.2172 44.6001 18.5493 45.268C17.8814 45.9359 16.9758 46.3116 16.0313 46.3125ZM40.9688 19.5937H45.1369L48.9559 28.5H40.9688V19.5937ZM40.9688 46.3125C40.2642 46.3125 39.5754 46.1036 38.9895 45.7121C38.4037 45.3207 37.9471 44.7643 37.6774 44.1133C37.4078 43.4623 37.3373 42.746 37.4747 42.055C37.6122 41.3639 37.9515 40.7292 38.4497 40.2309C38.9479 39.7327 39.5827 39.3934 40.2738 39.2559C40.9648 39.1185 41.6811 39.189 42.3321 39.4587C42.983 39.7283 43.5394 40.1849 43.9309 40.7708C44.3223 41.3566 44.5313 42.0454 44.5313 42.75C44.5303 43.6945 44.1547 44.6001 43.4868 45.268C42.8189 45.9359 41.9133 46.3116 40.9688 46.3125ZM49.875 40.9687H47.8408C47.4485 39.443 46.5609 38.0906 45.3172 37.1235C44.0736 36.1564 42.5442 35.6294 40.9688 35.625V32.0625H49.875V40.9687Z" fill="#308D8D"/>
</svg>
