<svg width="40" height="42" viewBox="0 0 40 42" fill="none" xmlns="http://www.w3.org/2000/svg">
<path d="M1.3335 0.466675H5.28554C6.66365 0.466675 7.35149 0.466675 7.90079 0.768061C8.12725 0.892727 8.33238 1.05272 8.50843 1.24201C8.93377 1.70138 9.10148 2.36978 9.43446 3.70657L9.87682 5.47357C10.1223 6.4555 10.2463 6.94647 10.4358 7.35966C10.7599 8.06474 11.2481 8.682 11.8595 9.15981C12.4709 9.63763 13.1879 9.96212 13.9504 10.1062C14.3976 10.1888 14.9032 10.1888 15.9167 10.1888" stroke="white" stroke-width="2" stroke-linecap="round"/>
<path d="M35.3613 32.0634H9.96225C9.60983 32.0634 9.4324 32.0634 9.29629 32.0489C8.95882 32.0112 8.63298 31.9033 8.33977 31.732C8.04657 31.5607 7.79252 31.3299 7.59398 31.0544C7.39544 30.7789 7.25683 30.4649 7.18708 30.1326C7.11733 29.8002 7.11799 29.457 7.18902 29.1249C7.24512 28.9098 7.31081 28.6974 7.38589 28.4881C7.51228 28.1138 7.57304 27.9267 7.64353 27.759C7.98951 26.9303 8.5583 26.2136 9.28678 25.6885C10.0153 25.1633 10.875 24.8503 11.7706 24.784C11.9504 24.7719 12.1497 24.7719 12.541 24.7719H25.6392" stroke="white" stroke-width="2" stroke-linecap="round" stroke-linejoin="round"/>
<path d="M26.9222 24.7722H18.2841C15.3286 24.7722 13.8508 24.7722 12.7109 24.1038C12.2303 23.821 11.8019 23.4576 11.4446 23.0295C10.5939 22.0135 10.3509 20.5552 9.86718 17.641C9.37378 14.6879 9.1283 13.2101 9.71406 12.1164C9.95773 11.6599 10.2958 11.2606 10.7057 10.9449C11.6876 10.189 13.1849 10.189 16.1793 10.189H32.3569C35.8812 10.189 37.6433 10.189 38.3579 11.341C39.07 12.4955 38.2801 14.0705 36.7051 17.2229L35.6187 19.3982C34.311 22.0135 33.6572 23.3211 32.4833 24.0454C31.3069 24.7722 29.8462 24.7722 26.9222 24.7722Z" stroke="white" stroke-width="2" stroke-linecap="round"/>
<path d="M34.8601 39.3553C34.8601 40.4215 33.9958 41.2859 32.9296 41.2859C31.8634 41.2859 30.999 40.4215 30.999 39.3553C30.999 38.2891 31.8634 37.4248 32.9296 37.4248C33.9958 37.4248 34.8601 38.2891 34.8601 39.3553Z" fill="white" stroke="white"/>
<path d="M15.4167 39.3553C15.4167 40.4215 14.5524 41.2859 13.4862 41.2859C12.42 41.2859 11.5557 40.4215 11.5557 39.3553C11.5557 38.2891 12.42 37.4248 13.4862 37.4248C14.5524 37.4248 15.4167 38.2891 15.4167 39.3553Z" fill="white" stroke="white"/>
</svg>
