<svg width="59" height="58" viewBox="0 0 59 58" fill="none" xmlns="http://www.w3.org/2000/svg">
<path d="M51.9434 3.01235C51.9524 3.00495 51.965 3.00397 51.9749 3.01006C52.1111 3.09392 52.2325 3.19759 52.3573 3.29885C52.3925 3.325 52.3925 3.325 52.428 3.35153C52.766 3.6175 53.0264 4.09119 53.1679 4.49837C53.1875 4.55478 53.2096 4.61007 53.2324 4.66536C53.352 4.99935 53.3362 5.37156 53.2164 5.70031C53.2056 5.7299 53.2282 5.7616 53.2596 5.75953C53.5654 5.74944 53.8 5.7939 54.0358 5.99936C54.315 6.27281 54.4891 6.64936 54.5 7.04908C54.4874 7.37302 54.4304 7.6013 54.2608 7.86588C54.2497 7.88311 54.2306 7.89334 54.2101 7.89334C54.1859 7.89334 54.164 7.90757 54.1543 7.92973C54.1509 7.93744 54.1472 7.94594 54.1406 7.96133C54.0614 8.11248 53.9246 8.22704 53.7729 8.32092C53.5172 8.47916 53.2251 8.57772 52.9248 8.59365C52.5674 8.6126 52.1887 8.56339 51.8698 8.46135C51.8557 8.45686 51.8431 8.44891 51.8328 8.43833C51.8194 8.42451 51.802 8.41522 51.783 8.41217C51.7438 8.40585 51.7045 8.40065 51.665 8.39616C51.6069 8.38947 51.5666 8.45259 51.5995 8.50094C51.6464 8.56982 51.6961 8.63284 51.76 8.69725C51.8452 8.78733 51.8962 8.86303 51.9405 8.97146C51.9521 8.99973 51.9542 9.04655 51.9506 9.07688C51.9403 9.16253 51.8625 9.20445 51.7768 9.19497C51.5468 9.16956 51.3599 9.07366 51.1607 8.93022C51.1357 8.91224 51.1146 8.88948 51.0978 8.86364L51.0651 8.81309C51.0557 8.79853 51.0334 8.78437 51.017 8.77863C50.9625 8.75949 50.9238 8.81646 50.9399 8.87193C50.9451 8.88991 50.9504 8.90789 50.9556 8.92587C50.965 8.958 50.9741 8.99013 50.9835 9.023C51.0045 9.09398 51.0281 9.16421 51.0539 9.23369C51.0923 9.36967 51.0966 9.4866 51.0959 9.62967C51.0963 9.67674 51.0963 9.72344 51.0966 9.772C51.0734 10.1112 50.9399 10.4168 50.7175 10.6651C50.6977 10.6873 50.672 10.7033 50.6436 10.712C50.6301 10.7162 50.6199 10.7192 50.6105 10.7217C50.5687 10.7327 50.5335 10.7615 50.5201 10.8026C50.5107 10.8316 50.4905 10.856 50.4633 10.8698C50.395 10.9046 50.3279 10.9353 50.256 10.9644C50.2328 10.9741 50.2095 10.9842 50.186 10.9943C50.1805 10.9966 50.1751 10.9989 50.1696 11.0012C50.0105 11.0679 49.9054 11.2438 50.0115 11.3798C50.1611 11.5908 50.2342 11.7828 50.2137 12.039C50.2108 12.0752 50.2035 12.1111 50.1915 12.1454C50.1365 12.3018 50.0439 12.4369 49.9487 12.5723C49.935 12.5917 49.9101 12.5998 49.8876 12.5921C49.8807 12.5897 49.8737 12.5873 49.8668 12.5849C49.8423 12.5765 49.8168 12.5947 49.8168 12.6206C49.8168 12.6341 49.8095 12.6466 49.7978 12.6533C49.7403 12.6863 49.6828 12.7189 49.6256 12.7519C49.5637 12.7884 49.5577 12.7919 49.5078 12.8472C49.4975 12.8586 49.4808 12.8617 49.4671 12.8547C49.4446 12.8431 49.4178 12.8594 49.4178 12.8847V12.8861C49.4178 12.8973 49.4124 12.9078 49.4032 12.9143C49.3101 12.9792 49.2136 13.0371 49.1168 13.0964C49.0323 13.1561 48.9851 13.2097 48.9287 13.2885C48.9169 13.305 48.898 13.3149 48.8778 13.3149C48.8533 13.3149 48.8312 13.3294 48.8213 13.3518C48.8161 13.3635 48.8109 13.3754 48.8056 13.3874C48.7759 13.4436 48.7679 13.4587 48.7375 13.4774C48.7107 13.4938 48.6925 13.5214 48.6925 13.5528C48.6925 13.5891 48.6691 13.6213 48.6345 13.6326L48.6138 13.6393C48.6087 13.6409 48.6037 13.643 48.5989 13.6454C48.5673 13.6612 48.5443 13.6748 48.5265 13.6892C48.436 13.7619 48.4028 13.8845 48.3315 13.9761C48.3188 13.9923 48.3062 14.0085 48.2935 14.0247C47.9769 14.4767 47.7205 14.9362 47.4956 15.4405C47.4634 15.5133 47.4307 15.5858 47.3977 15.6583C47.2911 15.8947 47.1877 16.1327 47.0913 16.3718C47.0144 16.5638 46.9342 16.7528 46.8439 16.9359C46.7529 17.1522 46.6782 17.3692 46.6194 17.5971C46.59 17.6837 46.59 17.6837 46.5414 17.7659C46.4569 17.9124 46.3985 18.0678 46.3362 18.2254C46.2056 18.5553 46.2056 18.5553 46.1345 18.6774C46.0761 18.7779 46.0413 18.878 46.0029 18.9875C45.9543 19.1179 45.8926 19.2408 45.8306 19.3648C45.8125 19.4018 45.8125 19.4018 45.794 19.4395C45.7693 19.4896 45.7446 19.5392 45.72 19.5893C45.6126 19.8071 45.5085 20.0264 45.4077 20.2468C45.2826 20.5202 45.1567 20.7922 45.0124 21.0537C44.8905 21.2834 44.7803 21.5206 44.6679 21.756C44.5239 22.0545 44.3665 22.3388 44.1891 22.6189C44.0948 22.774 44.0085 22.9331 43.9222 23.0934C43.9025 23.1242 43.8974 23.1321 43.8849 23.1515C43.8747 23.1674 43.8571 23.177 43.8382 23.177C43.8132 23.177 43.7914 23.1937 43.7848 23.2177C43.7795 23.2368 43.7743 23.2559 43.7688 23.2753C43.7205 23.409 43.6603 23.5058 43.5784 23.6205C43.553 23.6567 43.5276 23.6926 43.5015 23.7299C43.4828 23.7522 43.4642 23.7748 43.4451 23.7979C43.4376 23.8069 43.4265 23.8121 43.4148 23.8121C43.3881 23.8121 43.3692 23.8381 43.3774 23.8635L43.3848 23.8864C43.3922 23.9091 43.3846 23.9339 43.3658 23.9486L43.3107 23.9918C43.2194 24.0631 43.2111 24.0696 43.1599 24.157C43.1495 24.1747 43.1305 24.1857 43.11 24.1857C43.0863 24.1857 43.065 24.2002 43.0564 24.2224L43.011 24.3393C43.0032 24.3593 42.984 24.3724 42.9626 24.3724C42.9404 24.3724 42.9207 24.3865 42.9134 24.4074C42.908 24.423 42.9025 24.4386 42.8969 24.4546C42.8512 24.563 42.7983 24.6455 42.7283 24.7389C42.7065 24.7684 42.6851 24.7979 42.6626 24.8282C42.6475 24.8441 42.6323 24.8599 42.617 24.8761C42.6056 24.8882 42.5897 24.8951 42.5731 24.8951H42.5659C42.5286 24.8951 42.5021 24.9315 42.5136 24.967C42.5213 24.9907 42.5121 25.0165 42.4912 25.0301L42.4291 25.0703C42.2825 25.1708 42.1687 25.2985 42.0483 25.4296C42.0212 25.4557 42.0053 25.471 41.9909 25.4799C41.9477 25.5068 41.896 25.5218 41.8738 25.5675L41.853 25.6104C41.8435 25.6299 41.8238 25.6422 41.8022 25.6422C41.7796 25.6422 41.7593 25.6557 41.7506 25.6765C41.7461 25.6874 41.7415 25.6984 41.7367 25.7094C41.6881 25.7995 41.6399 25.8473 41.563 25.913C41.4201 26.0371 41.2816 26.1656 41.1423 26.2941C41.1158 26.3159 41.0996 26.3292 41.0854 26.3373C41.041 26.3628 40.9909 26.3831 40.9751 26.4319C40.9687 26.4517 40.9571 26.4696 40.9416 26.4835C40.8779 26.5404 40.8519 26.5616 40.82 26.5695C40.7772 26.5801 40.7368 26.6006 40.7194 26.6411C40.5909 26.8796 40.2969 27.0784 40.0773 27.2335C40.0656 27.2418 40.0516 27.2463 40.0372 27.2463C40.0072 27.2463 39.9805 27.2657 39.9713 27.2943L39.9607 27.3269C39.9541 27.3474 39.9418 27.3658 39.9253 27.3798C39.8686 27.4277 39.858 27.4354 39.767 27.5007C39.7308 27.5272 39.6945 27.5537 39.6571 27.581C39.6223 27.606 39.5875 27.6314 39.5516 27.6572C39.2897 27.85 39.0438 28.0607 38.819 28.3035C38.7856 28.336 38.769 28.3522 38.7515 28.3602C38.7116 28.3785 38.669 28.3943 38.6514 28.4346C38.6046 28.5228 38.555 28.5792 38.485 28.6483C38.4625 28.6707 38.44 28.6931 38.4168 28.7163C38.3957 28.7372 38.3751 28.7577 38.3533 28.779L38.2695 28.8702C38.2449 28.8936 38.2301 28.9076 38.2166 28.916C38.1734 28.9427 38.1216 28.9575 38.0994 29.0032L38.0777 29.0479C38.0688 29.0662 38.0502 29.0779 38.0299 29.0779C38.0065 29.0779 37.9859 29.0931 37.9788 29.1153C37.9746 29.1285 37.9703 29.1419 37.966 29.1556C37.9058 29.2919 37.8213 29.3995 37.7299 29.5146C37.6936 29.5613 37.6573 29.608 37.6214 29.655C37.604 29.6778 37.5863 29.7006 37.5681 29.7238C37.3719 29.9793 37.2243 30.2318 37.0966 30.5307C37.0636 30.608 37.0277 30.6842 36.99 30.7593C36.924 30.9005 36.8928 31.0391 36.8584 31.1926C36.841 31.2696 36.8232 31.3465 36.805 31.4235C36.7111 31.8269 36.6455 32.2341 36.5777 32.6413C36.5617 32.7369 36.5454 32.8326 36.5294 32.9278C36.5247 32.9566 36.52 32.985 36.5153 33.0145C36.4852 33.1905 36.4402 33.3545 36.3833 33.5226C36.3535 33.6122 36.3314 33.7022 36.3118 33.7945C36.3046 33.8278 36.2969 33.861 36.2897 33.8954C36.2748 33.9637 36.2603 34.0321 36.2458 34.1001C36.2288 34.1766 36.2101 34.2476 36.188 34.3166C36.1238 34.5166 36.0364 34.7086 35.9821 34.9115C35.9081 35.1812 35.8146 35.4345 35.7058 35.6922C35.6779 35.7666 35.651 35.8409 35.6245 35.916C35.5796 36.0393 35.5295 36.1611 35.4798 36.2825C35.4525 36.3515 35.4473 36.3646 35.4494 36.4252C35.4505 36.4565 35.4339 36.486 35.406 36.5004C35.3888 36.5092 35.3754 36.524 35.3683 36.542C35.3416 36.6099 35.3384 36.621 35.309 36.7218C35.2278 36.9833 35.2278 36.9833 35.1821 37.1028C35.1378 37.2209 35.0997 37.3404 35.0624 37.4607C34.9931 37.6826 34.9144 37.8903 34.8082 38.0957C34.7146 38.2949 34.6511 38.5067 34.5811 38.7159C34.5626 38.7667 34.5438 38.8171 34.5245 38.8675C34.4059 39.1925 34.316 39.5138 34.2725 39.8612C34.2477 39.9843 34.1632 40.0872 34.1366 40.2098C34.1344 40.2203 34.1321 40.2307 34.13 40.2411C34.1158 40.3073 34.1158 40.3073 34.1017 40.3749L34.0734 40.5097C34.056 40.5852 34.0386 40.6607 34.0211 40.7361C33.9642 40.989 33.916 41.2442 33.8688 41.4982C33.863 41.5292 33.8572 41.5606 33.8511 41.5923C33.846 41.6203 33.8405 41.6484 33.8355 41.6771C33.8176 41.7514 33.7773 41.8201 33.7674 41.8958C33.7609 41.9449 33.755 41.9939 33.7495 42.0432C33.7448 42.0828 33.7448 42.0828 33.7401 42.1232C33.7303 42.208 33.7205 42.2924 33.7111 42.3772C33.6984 42.4885 33.6857 42.5998 33.6726 42.7112C33.6697 42.7369 33.6668 42.7627 33.6639 42.7896C33.6459 42.9425 33.5902 43.0947 33.5729 43.2477C33.4481 44.3514 33.4946 45.5119 33.5616 46.6138C33.5645 46.6609 33.5674 46.7076 33.5703 46.7561C33.5856 46.9758 33.611 47.1857 33.6563 47.4024C33.6846 47.5462 33.7024 47.6912 33.7219 47.8357C33.8672 49.1608 33.8975 49.4367 34.3276 50.1692C34.6028 50.6378 34.9662 51.0764 35.4773 51.2613C35.6979 51.3435 35.9018 51.4296 36.0823 51.543C36.5632 51.8449 36.8233 52.4821 36.5787 52.9947C36.5457 53.0513 36.5408 53.0597 36.4952 53.1071C36.4775 53.1255 36.453 53.1359 36.4274 53.1359C36.3864 53.1359 36.35 53.1623 36.3374 53.2013L36.3351 53.2085C36.3269 53.2338 36.3094 53.2553 36.2857 53.2674C35.9707 53.4288 35.6016 53.4622 35.2561 53.4863C35.0918 53.4997 34.9413 53.5367 34.781 53.5819C34.0338 53.7945 33.1054 53.8886 32.3982 53.4762C32.3753 53.4624 32.3528 53.4489 32.3293 53.4347C32.2999 53.4194 32.2705 53.4045 32.24 53.3888C31.9535 53.2382 31.7069 53.0462 31.4603 52.8359C31.4277 52.8086 31.395 52.781 31.3613 52.753C31.0167 52.45 30.781 52.0768 30.5489 51.6771C30.4912 51.5796 30.4314 51.4851 30.369 51.3913C30.0571 50.9094 29.8467 50.3715 29.6763 49.8186C29.6455 49.7252 29.6455 49.7252 29.5929 49.6102C29.5338 49.4701 29.5022 49.327 29.4743 49.1768C29.4634 49.1215 29.4525 49.0666 29.4416 49.0113C29.425 48.9254 29.4086 48.8391 29.392 48.7532C29.3756 48.6695 29.3593 48.5858 29.3426 48.5022C29.3379 48.4764 29.3328 48.4502 29.3281 48.4233C29.3172 48.3679 29.3036 48.313 29.2893 48.2581C29.2859 48.2451 29.277 48.2342 29.2651 48.228C29.2377 48.2139 29.2043 48.2292 29.1976 48.2592C29.1019 48.6851 29.0998 49.0835 29.15 49.5228C29.1548 49.5687 29.1595 49.6147 29.1646 49.6621C29.1874 49.8709 29.215 50.0581 29.2839 50.2561C29.3002 50.3158 29.3162 50.3756 29.3314 50.4357C29.3716 50.5908 29.4148 50.7443 29.4594 50.899C29.6609 51.5932 29.7716 52.1596 29.5139 52.8545C29.5079 52.8706 29.5006 52.8865 29.4917 52.9013C29.4686 52.94 29.4566 52.9499 29.4014 52.9699C29.373 52.9802 29.3506 53.0026 29.3413 53.0314L29.3309 53.0633C29.3243 53.0838 29.3051 53.0978 29.2835 53.0978C29.2619 53.0978 29.2427 53.1117 29.2361 53.1323L29.2208 53.1795C29.2144 53.1994 29.2028 53.2173 29.1868 53.2308C29.0048 53.3838 28.7911 53.4576 28.5654 53.5102C28.5252 53.5195 28.5252 53.5195 28.4838 53.5292C28.1973 53.5946 27.9072 53.6376 27.617 53.6768C27.5608 53.6846 27.5046 53.6925 27.448 53.7003C27.0527 53.7549 26.6574 53.8057 26.2584 53.8542C26.2334 53.8572 26.2084 53.8606 26.1826 53.8636C26.1101 53.8726 26.0379 53.8811 25.9654 53.8897C25.9248 53.8946 25.8842 53.8995 25.8421 53.9047C25.4359 53.9476 25.0297 53.9663 24.6235 53.9779C24.5963 53.9786 24.5691 53.9794 24.5412 53.9801C23.6998 54.0037 22.8583 53.9999 22.0169 53.9996C21.8022 53.9996 21.589 53.9996 21.3714 53.9996C20.9217 53.9996 20.4683 53.9996 20.0186 53.9992C19.6342 53.9992 19.2533 53.9992 18.8689 53.9992C18.4192 53.9996 17.9695 53.9996 17.5198 53.9992C17.2837 53.9992 17.0483 53.9992 16.8125 53.9992C15.3002 53.9999 13.7878 53.9921 12.2791 53.9144C12.1464 53.9077 12.014 53.9017 11.8801 53.8961C10.346 53.8221 10.346 53.8221 9.68233 53.5464C9.58006 53.5046 9.47923 53.4784 9.37261 53.4527C9.23334 53.419 9.10604 53.3776 8.97366 53.3219C8.90947 53.3017 8.84528 53.2827 8.78108 53.2636C7.09101 52.7369 7.09101 52.7369 6.44908 52.2587C6.31017 52.1672 6.16039 52.1004 6.01024 52.0309C5.78175 51.9255 5.58591 51.7929 5.38281 51.6424C5.36105 51.6263 5.33893 51.6102 5.31644 51.5938C5.05096 51.3981 4.85584 51.1978 4.65637 50.9289C4.63098 50.8956 4.60523 50.8627 4.57912 50.8284C4.02423 50.0924 3.68331 49.349 3.58176 48.4151C3.57741 48.3744 3.5727 48.3333 3.56834 48.2915C3.55565 48.1738 3.54368 48.0565 3.53208 47.9388C3.52881 47.9093 3.52591 47.8798 3.52265 47.8492C3.45047 47.1394 3.55094 46.3923 3.82222 45.7348C3.83418 45.703 3.84652 45.6713 3.85921 45.6384C4.07283 45.0893 4.34882 44.585 4.63896 44.0769C4.80072 43.79 4.95086 43.5016 5.09231 43.2028C5.11117 43.1624 5.11117 43.1624 5.13039 43.1213C5.14816 43.0836 5.16593 43.0455 5.18406 43.0066C5.32515 42.7097 5.47928 42.4239 5.64829 42.1437C5.68927 42.0753 5.72989 42.0066 5.77087 41.9382C5.87968 41.7552 5.98884 41.5725 6.09837 41.3891C6.3225 41.0155 6.51907 40.6233 6.71129 40.2311C6.75518 40.1429 6.79979 40.0551 6.84476 39.9677C6.992 39.6771 7.1106 39.3849 7.21831 39.0749C7.27235 38.918 7.32929 38.7663 7.39965 38.6154C7.59114 38.197 7.70756 37.7412 7.83486 37.2967C7.88818 37.1118 7.94403 36.928 8.00278 36.7438C8.35784 35.6381 8.65197 34.4912 8.6556 33.3182C8.65596 33.2831 8.65596 33.2476 8.65632 33.2114C8.65705 33.0986 8.65705 32.9857 8.65741 32.8729C8.65741 32.8345 8.65741 32.796 8.65777 32.7564C8.65777 32.2334 8.64617 31.7216 8.55369 31.2061C8.54027 31.1302 8.52939 31.0544 8.51923 30.9782C8.4913 30.7727 8.45431 30.5785 8.39483 30.3805C8.38323 30.3252 8.37198 30.2699 8.36074 30.2146C8.32629 30.0518 8.27297 29.9001 8.2135 29.7439C8.20008 29.7066 8.18666 29.6689 8.17251 29.6304C8.09091 29.4055 8.00314 29.1896 7.89579 28.9766C7.84901 28.8821 7.80657 28.7861 7.7645 28.689C7.69668 28.5332 7.62415 28.3812 7.54907 28.2295C7.44789 28.0226 7.35287 27.8148 7.26111 27.6019C7.24334 27.5605 7.24334 27.5605 7.22484 27.5186C7.12003 27.2739 7.03117 27.0255 6.94377 26.7715C6.9046 26.6594 6.86398 26.5511 6.81683 26.4424C6.73192 26.2312 6.64278 25.9998 6.59287 25.7647C6.50745 25.3623 6.65974 24.9414 6.97116 24.6726C7.16613 24.5043 7.39515 24.373 7.62314 24.294C7.62958 24.2917 7.63633 24.2906 7.64315 24.2906H7.66537C7.68747 24.2906 7.70539 24.2727 7.70539 24.2506C7.70539 24.2307 7.72006 24.2138 7.73979 24.2111C8.28117 24.1376 8.77551 24.1696 9.30116 24.328C9.34504 24.3411 9.38893 24.3538 9.43426 24.3672C9.64715 24.4326 9.85497 24.5054 10.0617 24.5895C10.0882 24.5992 10.1146 24.6089 10.1418 24.619C10.7294 24.8443 11.248 25.2242 11.6433 25.7248C11.6966 25.7871 11.7532 25.8372 11.8163 25.8887L11.8935 25.9552C11.9048 25.965 11.9113 25.9791 11.9113 25.994V26.0022C11.9113 26.026 11.9306 26.0453 11.9544 26.0453C11.9722 26.0453 11.9881 26.0562 11.9945 26.0727L12.0412 26.1929C12.0504 26.2165 12.0731 26.2321 12.0985 26.2321C12.1177 26.2321 12.1358 26.241 12.1473 26.2564C12.195 26.3203 12.2393 26.3841 12.2831 26.4517C12.3052 26.4853 12.3052 26.4853 12.3273 26.5193C12.3567 26.5645 12.3861 26.6101 12.4155 26.6557C12.4481 26.7069 12.4815 26.7577 12.5148 26.8085C12.8351 27.3202 13.0081 27.9142 13.1568 28.497C13.1778 28.5773 13.1999 28.6572 13.2231 28.7368C13.2888 28.9643 13.3446 29.1888 13.3798 29.4242C13.3965 29.525 13.3965 29.525 13.4313 29.6349C13.823 31.0171 13.8339 32.799 13.5028 34.1924C13.4803 34.2873 13.4638 34.3819 13.4501 34.4775C13.4462 34.5045 13.4815 34.5163 13.4951 34.4927C13.7345 34.0781 13.9811 33.6746 14.2749 33.2936C14.293 33.27 14.3112 33.2469 14.3297 33.2226C14.4356 33.0877 14.5469 32.9645 14.667 32.8416C14.6931 32.8068 14.7192 32.7721 14.7464 32.7366C14.7618 32.7175 14.7772 32.6985 14.7927 32.679C14.805 32.6637 14.8234 32.6548 14.843 32.6548C14.8683 32.6548 14.8912 32.6399 14.9014 32.6168C14.9056 32.6072 14.9097 32.5976 14.9139 32.5879C14.9571 32.5046 15.0028 32.4459 15.0648 32.3772C15.0862 32.3537 15.1076 32.3301 15.1297 32.3055C15.1518 32.2812 15.1743 32.2569 15.1972 32.2319C15.2186 32.208 15.24 32.1841 15.2621 32.1594C15.5094 31.8878 15.7807 31.6551 16.0709 31.4347C16.1238 31.3932 16.1768 31.3518 16.2301 31.3107C16.2547 31.2916 16.2794 31.2722 16.3048 31.2524C16.3632 31.2065 16.4205 31.1594 16.4774 31.1119C16.554 31.0496 16.554 31.0496 16.6287 31.0122C16.703 30.9775 16.703 30.9775 16.7607 30.9095C16.8619 30.8075 16.9736 30.7249 17.0889 30.6412C17.1114 30.6248 17.1339 30.6084 17.1571 30.5916C17.5333 30.3188 17.5948 30.2742 17.6685 30.2669C17.6944 30.2643 17.7156 30.2443 17.7156 30.2183C17.7156 30.2013 17.7248 30.1856 17.7397 30.1773C17.7566 30.1681 17.7735 30.1588 17.7907 30.1493C17.9894 30.0394 18.1896 29.9289 18.3855 29.8172C18.4203 29.7974 18.4551 29.7779 18.491 29.7578C18.5603 29.7185 18.6299 29.6793 18.6992 29.6401C19.1271 29.3991 19.5623 29.1769 20.0157 28.9938C20.1923 28.9221 20.3675 28.8463 20.5416 28.7701C20.5717 28.7574 20.6014 28.7443 20.6322 28.7312C21.1581 28.4959 21.8073 28.1933 22.2099 27.7599C22.2476 27.7286 22.2853 27.6975 22.323 27.6665C22.9323 27.1286 23.2769 26.3292 23.3603 25.5185C23.3791 25.1801 23.3621 24.8499 23.3324 24.5137C23.217 23.068 23.3258 21.5998 23.8365 20.255C23.9304 20.004 24.0204 19.7544 24.0969 19.4967C24.1335 19.3958 24.1832 19.3125 24.238 19.221C24.2742 19.1463 24.3105 19.0715 24.3468 18.9968C24.416 18.8623 24.4868 18.729 24.5575 18.5934C24.576 18.5583 24.5945 18.5231 24.6133 18.4873C24.7885 18.1563 24.9731 17.8335 25.1791 17.5235C25.309 17.3248 25.4355 17.1238 25.5599 16.922C25.6132 16.8361 25.6694 16.7524 25.726 16.6688C25.8276 16.5134 25.907 16.3501 25.9864 16.1831C26.0695 16.0083 26.1601 15.8395 26.2541 15.6713C26.3952 15.417 26.5199 15.1596 26.6313 14.8906C26.6443 14.8607 26.657 14.8308 26.6704 14.7998C26.7927 14.5032 26.8735 14.1909 26.9577 13.8808C26.9696 13.8371 26.9816 13.7934 26.9939 13.7482C27.0512 13.5323 27.1042 13.3149 27.1528 13.0982C27.2924 12.4706 27.4719 11.9252 27.7875 11.3686C27.8524 11.2536 27.9104 11.1363 27.9659 11.0163C27.9814 10.9841 27.9948 10.9562 28.0067 10.932C28.092 10.7574 28.3156 10.6665 28.4631 10.793C28.6205 10.9682 28.7515 11.1665 28.8875 11.3608C28.906 11.3873 28.9245 11.4138 28.9437 11.4415C29.0913 11.6578 29.2215 11.8823 29.2977 12.1363C29.3064 12.1643 29.3147 12.1923 29.3238 12.2211L29.3521 12.3137C29.3887 12.4273 29.4253 12.5405 29.4623 12.6537C29.483 12.7179 29.5029 12.7822 29.5214 12.8468C29.5331 12.8866 29.5454 12.9266 29.5583 12.9666C29.8073 13.7381 30.6072 14.0945 31.411 14.1999C31.7809 14.2496 32.1291 14.3232 32.4627 14.5002C32.487 14.5129 32.5117 14.5256 32.5367 14.5387C32.7986 14.6799 33.03 14.8573 33.2657 15.0393C33.3288 15.0856 33.3923 15.1315 33.4561 15.1771C33.4844 15.1977 33.513 15.2182 33.5424 15.2391C33.5707 15.2597 33.599 15.2799 33.6284 15.3008C33.6911 15.346 33.7539 15.3912 33.8166 15.436C33.8463 15.4577 33.8764 15.479 33.9073 15.501C33.9813 15.5548 34.0542 15.6097 34.1274 15.6646C34.2369 15.7427 34.3436 15.8006 34.4629 15.8607C34.5546 15.9172 34.6453 15.9747 34.7363 16.0326C34.8248 16.0845 34.9119 16.1222 35.0069 16.1596C35.0399 16.1745 35.0729 16.1895 35.107 16.2052C35.3115 16.2974 35.5023 16.3654 35.7199 16.4043C35.8251 16.4256 35.9198 16.4603 36.0188 16.5025C36.0946 16.535 36.0946 16.535 36.1805 16.5604C36.454 16.6531 36.623 16.8115 36.7826 17.0573C36.858 17.2153 36.9153 17.3744 36.9639 17.5429C36.9773 17.5889 36.9904 17.6344 37.0042 17.6815C37.0488 17.8702 37.047 18.0551 37.0455 18.2493C37.0459 18.2844 37.0462 18.3196 37.0462 18.3554C37.0444 19.0129 36.7807 19.6255 36.4079 20.1485C36.3332 20.255 36.269 20.3663 36.2052 20.4799C36.1986 20.489 36.192 20.4981 36.1853 20.5074C36.174 20.5229 36.1561 20.5322 36.1369 20.5322C36.1118 20.5322 36.0894 20.5481 36.0811 20.5718C36.0776 20.5818 36.0741 20.5919 36.067 20.6121C36.0184 20.7291 35.9586 20.8295 35.8911 20.9364C35.8683 20.973 35.8454 21.0092 35.8218 21.047C35.7904 21.0969 35.7916 21.1764 35.8505 21.1727C35.86 21.1721 35.8713 21.1711 35.8849 21.1699C35.9216 21.1691 35.9578 21.1684 35.9956 21.1676C36.1711 21.1661 36.3444 21.1702 36.5178 21.1811C37.5696 21.2435 38.5669 21.2207 39.5933 20.9663C39.7202 20.9352 39.8476 20.906 39.9743 20.8773C39.9954 20.8725 40.0104 20.8538 40.0104 20.8322C40.0104 20.8102 40.0258 20.7912 40.0473 20.7868L40.334 20.7278C40.3568 20.7231 40.3731 20.7031 40.3731 20.6799C40.3731 20.659 40.3863 20.6405 40.4061 20.6337C40.4149 20.6307 40.4237 20.6276 40.4325 20.6245C40.4583 20.6151 40.4844 20.6058 40.5112 20.5961C40.537 20.5871 40.5627 20.5778 40.5888 20.5684C40.6694 20.5299 40.7129 20.4885 40.7716 20.4209C40.8648 20.3249 40.9584 20.2288 41.0527 20.1336C41.1231 20.0665 41.1333 20.0568 41.1571 20.0037C41.1654 19.9849 41.1839 19.9726 41.2044 19.9726C41.2273 19.9726 41.2474 19.9574 41.2538 19.9354C41.2579 19.9214 41.2611 19.9106 41.2692 19.8833C41.3291 19.7103 41.4041 19.5471 41.4814 19.3827C41.4973 19.3484 41.5133 19.3136 41.53 19.2781C41.6696 18.98 41.8169 18.6879 41.9688 18.3965C42 18.3375 42.0305 18.2781 42.0609 18.2191C42.1487 18.0502 42.2408 17.8851 42.338 17.7222C42.4686 17.5022 42.5897 17.2814 42.6996 17.0498C42.9339 16.5567 43.2291 16.1084 43.5374 15.6639C43.6052 15.5634 43.6701 15.4614 43.7351 15.359C43.9831 14.9743 44.2573 14.6082 44.5402 14.2496C44.6403 14.1192 44.736 13.9862 44.8325 13.8536C45.2605 13.2633 45.2605 13.2633 45.489 13.028C45.5452 12.9593 45.6007 12.8894 45.6558 12.8199C45.6661 12.8091 45.6765 12.7983 45.6869 12.7873C45.6995 12.7741 45.7169 12.7665 45.7352 12.7665C45.7618 12.7665 45.7856 12.7504 45.7958 12.7259C45.7985 12.7193 45.8013 12.7127 45.8041 12.706C45.8647 12.5932 45.9353 12.5046 46.0181 12.4099C46.0275 12.3991 46.0412 12.3929 46.0555 12.3929C46.0831 12.3929 46.1055 12.3706 46.1055 12.343V12.332C46.1055 12.3037 46.1284 12.2809 46.1566 12.2809C46.1703 12.2809 46.1835 12.2754 46.1931 12.2656C46.238 12.2197 46.2431 12.2132 46.2981 12.143C46.482 11.917 46.6753 11.7396 46.911 11.5752C46.9524 11.5453 46.9524 11.5453 46.9944 11.5151C47.162 11.3951 47.331 11.2812 47.5094 11.1759C47.5722 11.1381 47.6343 11.099 47.696 11.0593C47.8797 10.9409 47.9949 10.716 47.8447 10.5575C47.8059 10.5165 47.7628 10.4645 47.7425 10.4119C47.7025 10.3087 47.6952 10.2128 47.7042 10.0919C47.7049 10.0829 47.7072 10.0741 47.7109 10.0659C47.7227 10.0401 47.7348 10.0144 47.7473 9.98898C47.7597 9.96363 47.7391 9.93452 47.7111 9.93824C47.1598 10.0044 46.5723 9.96252 46.0718 9.70476C46.0268 9.68272 45.9815 9.66105 45.9365 9.63901C45.5079 9.42786 45.104 9.19064 44.8147 8.79108C44.806 8.77896 44.8013 8.7643 44.8013 8.74934C44.8013 8.7184 44.7817 8.69088 44.7524 8.68083C44.7469 8.67895 44.7414 8.67706 44.7359 8.67517C44.7085 8.66574 44.6862 8.64461 44.6769 8.61712C44.669 8.59394 44.6652 8.57791 44.6624 8.55358C44.6564 8.50185 44.6715 8.44957 44.7032 8.40826C44.809 8.27034 44.9169 8.19292 45.0878 8.10926C45.1517 8.07713 45.1517 8.07713 45.2166 8.04463C45.3432 7.98934 45.4672 7.95012 45.601 7.91314C45.6337 7.90118 45.6663 7.88923 45.6997 7.8769C47.0128 7.45171 48.4446 7.55629 49.793 7.61119C49.828 7.61261 49.8515 7.57618 49.836 7.5448C49.8011 7.47147 49.7982 7.4654 49.7769 7.40205C49.7728 7.38972 49.767 7.37795 49.7598 7.36715C49.7378 7.33434 49.7034 7.31191 49.6645 7.30529C49.6486 7.3026 49.6327 7.2999 49.6166 7.29713C49.6052 7.29511 49.5937 7.29313 49.5823 7.29116C49.5348 7.283 49.486 7.25023 49.4639 7.20743C49.4375 7.15657 49.4546 7.10045 49.4936 7.0586C49.5013 7.05036 49.5092 7.0426 49.5187 7.03379C49.5577 6.99765 49.6096 6.97171 49.6622 6.97911C49.6679 6.9799 49.6734 6.98102 49.679 6.98252C49.7354 6.99754 49.7776 7.04378 49.8073 7.0941C49.8132 7.10417 49.8191 7.11431 49.8251 7.12454C49.9156 7.2537 50.0109 7.29443 50.139 7.32937C50.185 7.34192 50.2293 7.30556 50.2277 7.2579C50.2132 6.57428 50.2977 5.89439 50.4446 5.2257C50.4529 5.18723 50.4612 5.14838 50.4699 5.10878C50.6447 4.35879 51.0233 3.55864 51.6282 3.0908C51.6537 3.07111 51.6811 3.05388 51.7108 3.04165C51.7835 3.0118 51.8346 3.00893 51.9228 3.01849C51.9302 3.0193 51.9377 3.01711 51.9434 3.01235Z" fill="white"/>
</svg>
