<svg width="59" height="58" viewBox="0 0 59 58" fill="none" xmlns="http://www.w3.org/2000/svg">
<path d="M48.7069 3.01672C48.755 3.03961 48.8032 3.06249 48.8526 3.0859C48.8836 3.09974 48.9146 3.11358 48.9463 3.12795C49.1413 3.22054 49.2921 3.32378 49.4441 3.46108C49.8633 3.82455 50.4219 4.02731 50.964 4.23591C51.1748 4.31734 51.3819 4.40355 51.5871 4.49135C51.8632 4.60896 52.1444 4.72231 52.4231 4.83194C53.0513 5.07993 53.6694 5.34282 54.2773 5.6238C54.3673 5.66478 54.4559 5.70576 54.5459 5.7462C54.8764 5.90053 55.2146 6.05698 55.4882 6.27837V6.36351H55.5895C55.6642 6.45079 55.6642 6.45079 55.7447 6.56627C55.7846 6.62268 55.7846 6.62268 55.8257 6.68015C56.1861 7.2634 55.9011 8.14467 55.7415 8.74921C55.725 8.81413 55.725 8.81413 55.7073 8.87959C55.5699 9.39898 55.4116 9.89283 55.1297 10.3739C55.081 10.4569 55.0348 10.5405 54.9879 10.624C54.7757 11.0013 54.5256 11.3478 54.2431 11.6884C54.1684 11.7778 54.095 11.8682 54.0215 11.9582C53.7403 12.3009 53.449 12.6181 53.1095 12.9203C53.0545 12.9746 52.9994 13.0284 52.9443 13.0832C51.8297 14.1518 51.8297 14.1518 51.2774 14.2156C50.9874 14.1879 50.843 14.0613 50.6695 13.8766C50.5796 13.7782 50.4903 13.6797 50.4048 13.5797C50.292 13.4504 50.204 13.3583 50.0223 13.3029C49.9209 13.3881 49.9608 13.5563 49.9589 13.6723C49.9577 13.7415 49.9558 13.8101 49.9539 13.8793C49.9532 13.9155 49.9526 13.9517 49.952 13.9889C49.926 15.1384 49.8285 16.1303 49.268 17.1904C49.2059 17.3086 49.1464 17.4278 49.0869 17.5464C48.8931 17.9307 48.6936 18.3085 48.4587 18.6746C48.0046 19.3813 47.947 19.9433 48.2072 20.7139C48.3377 21.0758 48.4986 21.4249 48.6632 21.7782C48.8139 22.0986 48.9533 22.4211 49.0825 22.7489C49.0989 22.7893 49.1147 22.8303 49.1312 22.8718C49.4244 23.6211 49.4244 23.6211 49.4498 23.9532C49.4536 23.9926 49.4561 24.0319 49.4599 24.0724C49.4618 24.1006 49.4637 24.1288 49.4662 24.1581C49.5163 24.1719 49.5663 24.1868 49.6182 24.2006C49.6252 24.2528 49.6252 24.2528 49.6328 24.306C49.6796 24.6333 49.7265 24.9616 49.7734 25.2894C49.7974 25.4581 49.8221 25.6263 49.8456 25.7961L49.9152 26.2857C49.9241 26.3474 49.933 26.4097 49.9418 26.4714C49.9539 26.5587 49.9665 26.6454 49.9792 26.7321C49.9862 26.7816 49.9931 26.8311 50.0007 26.8822C50.0197 26.9982 50.0451 27.1121 50.0729 27.2271C50.1464 27.8486 50.1324 28.4787 50.1324 29.1045C50.1324 29.2535 50.1331 29.4031 50.1337 29.5516C50.1343 29.6963 50.1343 29.8411 50.135 29.9858C50.135 30.0385 50.1356 30.0912 50.1362 30.1455C50.135 30.584 50.0868 31.0139 49.9241 31.4354C49.9064 31.4812 49.8886 31.5275 49.8709 31.5749C49.8291 31.6744 49.7854 31.7717 49.7373 31.8691C49.3427 32.7419 49.6208 33.7168 49.8196 34.5938C50.0343 35.5645 50.0539 36.5054 49.9621 37.4888C49.9583 37.525 49.9558 37.5612 49.952 37.5984C49.8475 38.7309 49.6619 39.8378 49.3491 40.9404C49.2952 41.1309 49.2452 41.3209 49.1964 41.5109C49.1882 41.5418 49.18 41.5716 49.1724 41.603C49.047 42.0926 49.0527 42.5864 49.054 43.0888C49.0546 43.2032 49.054 43.3176 49.054 43.4326C49.054 43.8184 49.0628 44.2031 49.0869 44.5863C49.111 44.9961 49.1141 45.4037 49.111 45.8167C49.1103 45.8475 49.1103 45.8784 49.1103 45.9098C49.1084 46.1961 49.1059 46.4845 49.1021 46.7698C49.1008 46.9284 49.0989 47.0875 49.0983 47.2466C49.0976 47.3062 49.097 47.3658 49.0964 47.4254C49.0894 47.8596 49.1002 48.2343 49.4751 48.5664C49.5118 48.5994 49.5473 48.6313 49.5853 48.6653C49.7259 48.7792 49.8703 48.8862 50.0178 48.9937C50.1901 49.1203 50.3566 49.2518 50.5232 49.3838C50.558 49.4114 50.5935 49.4391 50.6302 49.4678C51.0368 49.7903 51.4358 50.115 51.7955 50.4768C51.8449 50.5269 51.8449 50.5269 51.8955 50.5769C52.0159 50.6987 52.1336 50.8217 52.2514 50.9451C52.2768 50.9717 52.3021 50.9989 52.3287 51.026C52.8068 51.5284 53.3217 52.0733 53.494 52.7119C53.4534 52.862 53.3686 52.9237 53.2261 53.0163C52.8645 53.1967 52.4205 53.2154 52.0102 53.2521C51.9709 53.2558 51.9329 53.2595 51.8924 53.2633C51.0817 53.3276 50.261 53.2803 49.4504 53.2521C49.3966 53.2505 49.3427 53.2489 49.2876 53.2468C48.553 53.2207 47.8184 53.1882 47.0838 53.1409C47.0445 53.1382 47.0065 53.1361 46.9666 53.1334C45.8926 53.0664 45.8926 53.0664 45.5633 52.7758C43.9167 50.8813 44.0586 48.0927 44.246 45.8789C44.3663 44.4442 44.3043 43.0223 44.0434 41.6216C43.9211 40.9447 43.918 40.2507 43.885 39.5696C43.8787 39.444 43.8724 39.3184 43.866 39.1933C43.8641 39.1561 43.8622 39.1178 43.8603 39.0794C43.8667 38.6239 43.8667 38.6239 43.7394 38.1982C43.7261 38.1205 43.7153 38.0417 43.7064 37.963C43.7001 37.9135 43.6944 37.8645 43.6881 37.8134C43.6817 37.7597 43.676 37.7065 43.6691 37.6511C43.6589 37.567 43.6488 37.4835 43.6393 37.3994C43.6254 37.2813 43.6115 37.1637 43.5975 37.0455C43.5735 36.8401 43.5488 36.6341 43.5247 36.4282C43.512 36.3186 43.4987 36.2095 43.4861 36.0998C43.4576 35.8614 43.4284 35.623 43.3847 35.3889C42.8325 35.5288 42.4272 35.8316 42.0168 36.1552C41.9472 36.2063 41.8775 36.2568 41.8078 36.3074C41.6691 36.4085 41.538 36.5139 41.4089 36.6235C41.248 36.7608 41.0814 36.8885 40.9079 37.0141C40.7908 37.0998 40.6774 37.1876 40.5634 37.2759C40.3658 37.4249 40.1638 37.5686 39.9555 37.7059C39.9289 37.724 39.9023 37.7421 39.875 37.7607C39.5394 37.98 39.1708 38.0045 38.7604 38.0327C38.6844 38.038 38.6844 38.038 38.6072 38.0433C38.0448 38.08 37.4875 38.0816 36.9252 38.079C36.7491 38.0779 36.5724 38.0779 36.3983 38.0779C36.2855 38.0779 36.1741 38.0774 36.0613 38.0768H35.9018C35.8543 38.0763 35.8061 38.0763 35.7567 38.0758C35.7143 38.0758 35.6719 38.0753 35.6288 38.0753C35.5325 38.0694 35.5325 38.0694 35.4819 38.0268C35.3641 38.0114 35.245 37.997 35.1272 37.9842V37.8991C35.0449 37.9055 34.962 37.9113 34.8803 37.9177C34.8347 37.9209 34.7884 37.9246 34.7416 37.9284C34.62 37.9358 34.62 37.9358 34.5199 37.9842C34.3667 38.2871 34.3154 38.6271 34.2463 38.9464C34.1494 39.3977 34.0342 39.8362 33.8676 40.2747C33.6206 40.9431 33.6498 41.4965 33.912 42.1564C33.9303 42.2054 33.9487 42.2543 33.9671 42.3049C34.3217 43.1989 34.9246 44.0504 35.6643 44.7571C35.7878 44.8795 35.7878 44.8795 35.7878 44.9647H35.8891V45.0498H35.9904C36.0651 45.1153 36.0651 45.1153 36.1513 45.2041C36.2678 45.3196 36.3831 45.4223 36.5224 45.5181C37.2165 46.0077 38.0727 46.9613 38.1892 47.7319C38.2038 47.9416 38.2057 48.1135 38.053 48.2854C37.283 48.8984 35.5604 48.8303 34.5725 48.8686C34.3337 48.8782 34.1 48.899 33.8632 48.9256C33.8949 49.6876 34.1646 50.3858 34.4914 51.0883C35.2666 52.7529 35.2666 52.7529 34.9765 53.3532C34.2976 53.8896 33.3249 53.8939 32.4434 53.9492C32.38 53.954 32.38 53.954 32.3154 53.9588C32.071 53.9764 31.8272 53.9865 31.5808 53.9918C31.5339 53.9929 31.4865 53.9944 31.4377 53.9955C30.4802 54.0157 29.553 53.9764 28.6411 53.6938C28.5613 53.6693 28.5613 53.6693 28.4802 53.6448C27.7355 53.4011 27.7355 53.4011 27.5784 53.1424C27.4758 52.8859 27.4524 52.6529 27.4568 52.3846C27.4575 52.3405 27.4581 52.2963 27.4581 52.2516C27.5049 50.1272 27.5049 50.1272 27.9381 49.429C27.9527 49.4035 27.9673 49.3774 27.9825 49.3513C27.966 49.3231 27.9483 49.2954 27.9318 49.2662C27.9913 49.2587 27.9913 49.2587 28.0521 49.2502C28.1902 49.1938 28.1902 49.1938 28.2199 49.1022C28.2947 48.7845 28.2985 48.4764 28.2928 48.1529C28.2921 48.0736 28.2921 48.0736 28.2915 47.9922C28.2902 47.8634 28.289 47.7335 28.2871 47.6042C28.2149 47.7697 28.1718 47.9139 28.1642 48.0895C28.1623 48.1311 28.1604 48.1726 28.1579 48.2151C28.1566 48.2577 28.1547 48.3003 28.1534 48.3439C28.1515 48.3876 28.1496 48.4307 28.1471 48.4759C28.1427 48.5829 28.1382 48.6898 28.1344 48.7963H28.0838C28.0812 48.7457 28.0793 48.6951 28.0768 48.6425C28.0679 48.4482 28.0584 48.254 28.0489 48.0592C28.0451 47.9762 28.0407 47.8932 28.0375 47.8102C28.009 47.1758 27.94 46.5542 27.8514 45.9242C27.8153 45.6666 27.7817 45.409 27.7488 45.1493C27.7424 45.0961 27.7348 45.0429 27.7279 44.9881L27.6626 44.4857C27.6588 44.457 27.655 44.4277 27.6512 44.3974C27.5581 43.6779 27.4682 42.9541 27.3891 42.2347C27.3834 42.1873 27.3834 42.1873 27.3783 42.1399C27.3447 41.8377 27.3118 41.5354 27.2801 41.2331L27.2529 40.9803C27.2421 40.8787 27.2314 40.7765 27.2212 40.6749C27.1946 40.429 27.1554 40.1895 27.0939 39.9511C27.0629 39.8245 27.0458 39.6978 27.0312 39.569C27.0255 39.5169 27.0198 39.4647 27.0129 39.411C27.0072 39.3567 27.0015 39.3014 26.9951 39.2455C26.9882 39.1875 26.9812 39.1295 26.9749 39.0715C26.9426 38.783 26.9147 38.4967 26.8938 38.2072C26.89 38.1545 26.8862 38.1019 26.8824 38.0481C26.8755 37.9497 26.8691 37.8512 26.8641 37.7528C26.8305 37.2759 26.6728 36.8417 26.3967 36.4202C26.3771 36.3894 26.3574 36.3585 26.3365 36.3271C25.9439 35.7353 25.4854 35.4799 24.771 35.1861C24.0567 34.8902 23.3677 34.5816 22.7141 34.1942C22.5412 34.3102 22.4804 34.4693 22.4006 34.6369C22.1473 35.1393 21.8129 35.5608 21.3924 35.9695C21.2392 36.1174 21.0954 36.2707 20.9523 36.425C20.6774 36.722 20.6774 36.722 20.5343 36.8593C20.3754 37.012 20.2297 37.1738 20.0828 37.3361C19.9207 37.5143 19.7566 37.6921 19.5907 37.8682C19.5438 37.9183 19.497 37.9678 19.4501 38.0183C19.4172 38.0534 19.4172 38.0534 19.3836 38.0896C19.2437 38.2392 19.105 38.3887 18.9669 38.5409C18.9397 38.5702 18.9125 38.5994 18.8846 38.6292C18.8086 38.7123 18.7345 38.7963 18.6629 38.8815C18.6427 38.9054 18.623 38.9288 18.6021 38.9528C18.314 39.3296 18.3349 39.8383 18.2918 40.2726C18.1918 41.239 18.0328 42.1884 17.7548 43.1292C17.4641 44.1042 17.5154 45.0876 17.6522 46.0796C17.6573 46.1221 17.663 46.1642 17.6687 46.2078C17.7561 46.8549 17.9587 47.4211 18.2412 48.0257C18.4938 48.5706 18.6572 49.1113 18.668 49.6988C18.6686 49.7302 18.6693 49.7616 18.6705 49.7941C18.6737 49.8962 18.6756 49.9984 18.6769 50.1006C18.6781 50.1485 18.6781 50.1485 18.6788 50.1969C18.6794 50.4268 18.6636 50.6525 18.4945 50.844C17.6839 51.406 16.3362 51.1931 15.3483 51.1729C15.209 51.1702 15.0703 51.1676 14.931 51.1655C13.5833 51.1394 13.5833 51.1394 13.4009 51.0612C13.1622 50.0181 13.3541 48.809 13.5314 47.766C13.6422 47.1018 13.6726 46.4505 13.6701 45.7778C13.6694 45.7129 13.6694 45.7129 13.6694 45.6464C13.6669 45.1738 13.6542 44.7055 13.6308 44.2329C13.6289 44.1936 13.627 44.1536 13.6245 44.1127C13.6143 43.6656 13.6143 43.6656 13.4744 43.2399C13.3553 42.9935 13.3775 42.7333 13.3813 42.4736C13.3819 42.3911 13.3819 42.3911 13.3826 42.307C13.3908 41.8515 13.4446 41.4172 13.5523 40.9702C13.5599 40.9372 13.5681 40.9048 13.5763 40.8707C13.6162 40.7036 13.6587 40.536 13.7024 40.3684C13.7505 40.1826 13.791 39.9969 13.8309 39.8106C13.9899 39.0699 13.9899 39.0699 14.1602 38.7974C14.1932 38.7836 14.2267 38.7697 14.2616 38.7548C14.2863 38.6675 14.2863 38.6676 14.2977 38.5601C14.3059 38.4973 14.3059 38.4973 14.3141 38.4339C14.3198 38.3882 14.3255 38.3419 14.3312 38.2945C14.3445 38.1955 14.3578 38.0971 14.3711 37.9976C14.3781 37.9465 14.3851 37.8954 14.3927 37.8427C14.6004 36.3441 14.9145 34.8455 15.3755 33.3725C15.3863 33.3374 15.3971 33.3017 15.4085 33.265C15.6554 32.4774 16.0519 31.7451 16.4825 31.0171C16.846 30.3998 17.0803 29.7995 17.2475 29.1269C17.4837 28.1903 17.7896 27.2707 18.124 26.3554C18.1569 26.266 18.1886 26.1766 18.2215 26.0872C18.6604 24.8611 19.1537 23.6647 19.7566 22.4897C19.8624 22.2832 19.9656 22.0757 20.0682 21.8682C20.2253 21.552 20.2253 21.552 20.2981 21.4424C20.3697 21.3051 20.3247 21.1689 20.2867 21.0263C20.2392 20.9252 20.2392 20.9252 20.1854 20.856H20.084V20.7708C20.0555 20.7602 20.027 20.749 19.9979 20.7378C19.8662 20.6793 19.7535 20.609 19.6344 20.534C19.4172 20.3988 19.1949 20.2743 18.9656 20.1535C18.699 20.0125 18.4489 19.8608 18.2057 19.6895C18.0999 19.6139 18.0999 19.6139 17.9537 19.5351V19.45H17.8523V19.3648C17.8219 19.3542 17.7915 19.3436 17.7605 19.3319C17.6376 19.2738 17.5806 19.218 17.4945 19.1248C17.2741 18.9067 17.0119 18.7614 16.7295 18.6054C16.6757 18.5762 16.6225 18.5469 16.5674 18.516C15.8885 18.1473 15.1843 17.8349 14.4598 17.5326C13.9126 17.3059 13.3756 17.0728 12.8639 16.7961C12.0229 16.3448 11.2325 16.1915 10.2497 16.0809C10.1787 16.0729 10.1084 16.0649 10.0381 16.0564C9.08061 15.9467 8.12307 15.8552 7.16047 15.7988C6.04081 15.7333 6.04081 15.7333 5.49871 15.6791C5.45312 15.6748 5.40752 15.6706 5.36065 15.6663C4.91672 15.6189 4.47405 15.5077 4.1194 15.2714C3.98071 15.0969 3.98768 14.966 4.01808 14.7606C4.1289 14.4115 4.31066 14.1475 4.68177 13.9559C5.54304 13.5616 6.51578 13.5132 7.47331 13.4791C7.51764 13.4775 7.56134 13.4759 7.60694 13.4738C8.42262 13.4429 9.2383 13.4323 10.054 13.4296C10.1844 13.4291 10.3149 13.4285 10.4454 13.4275C11.1749 13.4238 11.869 13.4402 12.5833 13.5696C12.634 13.5781 12.6853 13.5866 12.7379 13.5956C12.8658 13.6175 12.9937 13.6409 13.1216 13.6659C13.1679 13.6744 13.2141 13.6834 13.261 13.6925C13.8183 13.8027 14.3654 13.9389 14.9126 14.0804C14.9639 14.0943 15.0152 14.1071 15.069 14.1209C17.9416 14.8702 17.9416 14.8702 19.117 15.5258C19.1765 15.5599 19.2373 15.5934 19.2975 15.6269C19.3925 15.6801 19.4887 15.7339 19.5837 15.7876C20.4805 16.2943 21.4178 16.7498 22.355 17.2096C22.4905 17.2766 22.6267 17.3442 22.7616 17.4129C25.6849 18.8859 27.7925 18.7369 31.0197 18.0898C31.4668 18.0014 31.9165 17.9275 32.3674 17.8567C32.7397 17.7976 33.107 17.7279 33.4718 17.6449C33.6447 17.6098 33.8151 17.5874 33.9937 17.5683C33.9424 17.0276 33.8543 16.5678 33.5947 16.0654C32.8499 14.6264 32.5662 12.9576 32.627 11.3824H32.5257C32.513 11.4175 32.5003 11.4526 32.4871 11.4888C32.4244 11.6383 32.4244 11.6383 32.3287 11.7884C32.2014 11.9997 32.1305 12.2184 32.0564 12.4483C31.2661 14.7898 31.2661 14.7898 30.496 15.1858C30.3301 15.2384 30.2123 15.2102 30.0432 15.174C29.6607 15.025 29.4758 14.727 29.3238 14.4077C29.1433 13.9735 29.0704 13.5435 29.0172 13.088C28.9906 12.8666 28.9527 12.6495 28.902 12.4323C28.7981 11.947 28.819 11.4531 28.819 10.9678C28.8184 10.8805 28.8184 10.7938 28.8184 10.7065C28.8178 10.5245 28.8178 10.3414 28.8178 10.1616C28.8178 9.97745 28.8171 9.79225 28.8165 9.60813C28.8032 6.13415 28.8032 6.13415 29.4245 5.53387C30.1692 4.95913 31.3497 4.72072 32.2869 4.46102C33.1229 4.22846 33.9588 3.95866 34.7137 3.57124C35.1861 3.33177 35.8131 3.06462 36.3805 3.12848C36.6262 3.24662 36.777 3.44831 36.9378 3.63936C37.0062 3.62392 37.0062 3.62392 37.0765 3.60849C38.2519 3.35944 39.4881 3.29824 40.6939 3.2248C40.7382 3.22161 40.7838 3.21895 40.8294 3.21629C42.5874 3.10879 44.082 3.38924 45.764 3.79528C45.7988 3.8038 45.8343 3.81231 45.871 3.82136C46.0585 3.86712 46.2434 3.91768 46.4283 3.97302C46.6113 4.01986 46.6506 4.0289 46.8191 3.97835C46.9046 3.9246 46.9875 3.86712 47.0686 3.80805C48.2592 2.96936 48.2592 2.96936 48.6999 3.01619L48.7069 3.01672Z" fill="white"/>
</svg>
