<svg width="58" height="58" viewBox="0 0 58 58" fill="none" xmlns="http://www.w3.org/2000/svg">
<path d="M44.2814 3H44.5759C44.5181 3.1537 44.4146 3.23363 44.2814 3.32701C44.157 3.35644 44.157 3.35644 44.0606 3.36335L44.0238 3.47235C43.8913 3.52758 43.8011 3.54502 43.6557 3.54502V3.61769C43.5622 3.65257 43.4687 3.68745 43.3752 3.72233C43.3491 3.73214 43.3226 3.74195 43.2957 3.75213C43.1466 3.80736 42.9972 3.85931 42.8467 3.90873C42.6001 3.99739 42.3719 4.10494 42.1473 4.23574C42.1138 4.25354 42.0803 4.27171 42.0461 4.29024C41.9556 4.34583 41.9556 4.34583 41.8643 4.44248L41.7793 4.52642H41.7057L41.632 4.70809H41.5584C41.5492 4.72807 41.5404 4.74842 41.5308 4.76913C41.3759 5.05254 41.1186 5.29598 40.9014 5.53216C40.8293 5.61101 40.7593 5.69094 40.6898 5.77197C40.5897 5.8857 40.4833 5.98307 40.3655 6.07827C40.3018 6.1295 40.3018 6.1295 40.2275 6.21016C40.1553 6.27629 40.1097 6.2941 40.0136 6.3079V6.38057C39.8988 6.46487 39.7707 6.52991 39.6456 6.59858C39.6117 6.6182 39.5775 6.63782 39.5425 6.65781C39.205 6.83984 38.8505 6.94848 38.4825 7.05749C38.2138 7.13851 37.9672 7.23444 37.7169 7.35616C37.623 7.39831 37.623 7.39831 37.5494 7.39831V7.47097C37.4997 7.50368 37.45 7.53601 37.3996 7.56763C37.22 7.69116 37.0455 7.83577 36.9248 8.01454H36.8512C36.8412 8.04688 36.8313 8.07885 36.8214 8.11228C36.7665 8.26343 36.6844 8.38733 36.5987 8.52286C36.2718 9.07515 36.1423 9.72917 36.146 10.365C36.146 10.3934 36.1463 10.4217 36.1463 10.4511C36.1493 10.7894 36.1658 11.1052 36.2608 11.4285C36.2851 11.5415 36.3061 11.6556 36.3274 11.7694C36.3845 12.0608 36.4581 12.3434 36.5468 12.6269C36.6075 12.8209 36.6565 13.0193 36.7065 13.2155C36.7316 13.3234 36.7316 13.3234 36.8129 13.3928C36.7754 13.4026 36.7374 13.412 36.6984 13.4219C36.6484 13.4349 36.5983 13.4477 36.5483 13.4607C36.5236 13.4669 36.4986 13.4735 36.4732 13.48C36.2696 13.5316 36.2696 13.5316 36.0757 13.6108L36.0388 13.7198C35.9962 13.7536 35.9524 13.7859 35.9078 13.8175C35.5986 14.0777 35.422 14.5152 35.3815 14.9076C35.3741 15.1438 35.3918 15.3763 35.4146 15.6125C35.4179 15.6481 35.4209 15.6841 35.4242 15.7207C35.4264 15.8599 35.4264 15.8599 35.4882 15.9758C35.4985 16.0347 35.507 16.0939 35.5147 16.1531C35.5195 16.1887 35.5243 16.2247 35.5291 16.2614C35.5386 16.3373 35.5486 16.4137 35.5581 16.4896C35.5629 16.5252 35.5677 16.5612 35.5725 16.5979C35.5765 16.6309 35.581 16.664 35.5854 16.6982C35.5913 16.7745 35.5913 16.7745 35.6358 16.8115C35.7687 17.6508 35.7113 18.3957 35.2677 19.1369H35.1941C35.1853 19.1682 35.1768 19.1994 35.1676 19.2318C35.115 19.3691 35.0462 19.4639 34.9549 19.5795C34.8312 19.7368 34.8312 19.7368 34.7156 19.8996H34.642C34.6313 19.9214 34.6207 19.9432 34.6096 19.9654C34.5684 20.0449 34.5684 20.0449 34.4948 20.1539H34.4212C34.4112 20.1772 34.4013 20.2004 34.3914 20.2244C34.3476 20.2993 34.3476 20.2993 34.2371 20.3356L34.274 20.4446L34.1889 20.5242C34.0884 20.6205 34.0884 20.6205 34.0277 20.7284L33.9795 20.808H33.9059C33.8996 20.8279 33.8934 20.8476 33.8867 20.8679C33.8069 21.1132 33.7086 21.3475 33.5882 21.5764C33.4373 21.9311 33.3932 22.4848 33.5304 22.8481C33.66 23.0538 33.8923 23.181 34.0899 23.3169C34.1543 23.3637 34.2187 23.4106 34.2832 23.4578C34.5125 23.6224 34.7469 23.7765 34.9862 23.9302C35.0679 23.9832 35.1489 24.0374 35.2298 24.0912C35.2795 24.1239 35.3296 24.1562 35.3793 24.1889C35.4006 24.2031 35.422 24.2176 35.444 24.2321C35.68 24.3851 35.9373 24.5028 36.1875 24.6245C36.263 24.6612 36.3381 24.6987 36.4128 24.7361C36.5339 24.796 36.6561 24.8502 36.7809 24.9011C36.8166 24.916 36.8523 24.9305 36.8895 24.9457C37.6882 25.2553 38.5715 25.264 39.3776 24.9512C39.4313 24.9272 39.4851 24.9029 39.5388 24.8785C39.5985 24.8564 39.6584 24.8346 39.7184 24.8128C39.9422 24.7241 40.1417 24.602 40.3478 24.4788C40.3927 24.4527 40.438 24.4262 40.4833 24.4C40.8955 24.1587 41.2967 23.9095 41.6574 23.6006C41.7403 23.5392 41.791 23.5138 41.8923 23.4993V23.4266C41.9489 23.3863 41.9489 23.3863 42.0255 23.3427C42.126 23.2834 42.2176 23.2231 42.306 23.1472C42.3906 23.0771 42.4576 23.0382 42.5544 22.9906L42.628 22.9179C42.7002 22.8467 42.7583 22.8158 42.8489 22.7726C42.8864 22.737 42.9232 22.7006 42.9593 22.6636C43.0907 22.5531 43.2306 22.4605 43.3752 22.3671C43.4963 22.2864 43.6145 22.2028 43.733 22.1185C44.0694 21.8806 44.4139 21.6607 44.7673 21.4464C44.9811 21.3148 45.1942 21.1815 45.404 21.0467C45.7191 20.8465 46.0408 20.6579 46.3647 20.469C46.4519 20.4177 46.5392 20.3658 46.6264 20.3142C46.9076 20.1481 47.1895 19.9933 47.484 19.8527C47.5837 19.804 47.6805 19.7521 47.777 19.6972C47.8995 19.6285 48.0221 19.5773 48.1561 19.5315C48.2352 19.5039 48.2352 19.5039 48.3486 19.445C48.445 19.3974 48.445 19.3975 48.5186 19.3975V19.3248C48.5514 19.3161 48.5514 19.3161 48.5849 19.3073C48.7605 19.2587 48.9242 19.202 49.0891 19.1249C49.2474 19.0515 49.4031 18.9963 49.5713 18.9498C49.7388 18.9029 49.9029 18.8463 50.0682 18.7903C51.0804 18.4488 51.0804 18.4488 51.5 18.5254C51.3587 18.6417 51.2114 18.7402 51.0546 18.8364C50.8816 18.9433 50.8816 18.9433 50.7167 19.0621C50.6523 19.1064 50.6523 19.1064 50.5419 19.1064L50.5787 19.2154L50.4981 19.2405C50.3027 19.3306 50.165 19.5152 50.0196 19.6692C49.988 19.7027 49.9563 19.7361 49.9236 19.7702C49.8466 19.864 49.8135 19.9403 49.7686 20.0507C49.7322 20.0627 49.6957 20.0747 49.6582 20.0871C49.6195 20.1692 49.6195 20.1692 49.5846 20.2688C49.5441 20.3451 49.5025 20.4206 49.4602 20.4958C49.3567 20.6833 49.2632 20.8701 49.1797 21.0699C49.162 21.1059 49.1447 21.1422 49.1263 21.1797C48.7398 22.0735 48.8252 23.0545 49.0483 23.9665C49.0553 23.996 49.0626 24.0254 49.0696 24.0555C49.1138 24.2256 49.1731 24.3749 49.2562 24.5315C49.2956 24.6053 49.3265 24.6801 49.3564 24.7579C49.4119 24.8985 49.4716 25.0362 49.5334 25.1757C49.7778 25.7171 49.9604 26.2549 49.7679 26.8471C49.6641 27.0808 49.5334 27.2759 49.3593 27.4648C49.2551 27.5778 49.1613 27.6985 49.066 27.8191C48.9975 27.9012 48.929 27.9768 48.8492 28.048H48.7755L48.7019 28.2297H48.6283C48.6187 28.2558 48.6092 28.2824 48.5992 28.3092C48.5532 28.4146 48.4973 28.4971 48.4303 28.5908C48.1075 29.0814 48.0549 29.6663 48.1726 30.2259C48.2525 30.578 48.3924 30.8581 48.6291 31.1379V31.2106C48.6655 31.2226 48.7019 31.2345 48.7395 31.2469C48.8035 31.329 48.8617 31.41 48.9191 31.4969C48.9438 31.5336 48.9438 31.5336 48.9688 31.5714C49.4178 32.2581 49.3847 32.9121 49.2183 33.6897C49.1841 33.8448 49.148 33.9996 49.1079 34.1548C49.0052 34.5508 48.9817 34.9614 49.1079 35.3574C49.116 35.3832 49.1241 35.409 49.1322 35.4352C49.2216 35.6957 49.3637 35.8385 49.5923 35.9875C49.6736 36.0598 49.6987 36.1266 49.7322 36.228C49.7042 36.2113 49.6762 36.1946 49.6471 36.1775C49.1502 35.885 48.6828 35.727 48.1049 35.6616C48.0644 35.6568 48.0239 35.6525 47.982 35.6477C47.4483 35.5951 46.9109 35.594 46.3735 35.5892C45.0558 35.5754 45.0558 35.5754 44.9454 35.4664C44.8858 35.4555 44.8262 35.445 44.7665 35.4356C44.2181 35.3476 43.7102 35.1649 43.2169 34.9196C43.1941 34.9087 43.1713 34.8978 43.1478 34.8865C42.3564 34.505 41.5908 33.9455 41.0424 33.2587C40.9739 33.1723 40.9739 33.1723 40.89 33.0934C40.7814 32.9851 40.6802 32.8729 40.5797 32.757C40.5606 32.7348 40.5411 32.7126 40.5212 32.6897C40.3968 32.5451 40.2772 32.3972 40.1609 32.2465C39.8962 31.902 39.6198 31.5706 39.2996 31.2763C39.2414 31.2142 39.2414 31.2142 39.2414 31.1415C39.2201 31.1321 39.1991 31.1223 39.177 31.1125C39.0901 31.0667 39.0206 31.0144 38.9444 30.9529C38.5653 30.659 38.1604 30.4079 37.6893 30.2989C37.3956 30.2197 37.1188 30.0907 36.839 29.9723C36.8092 29.9599 36.7794 29.9472 36.7489 29.9345C36.7224 29.9232 36.6955 29.912 36.6682 29.9003C36.3576 29.7819 35.9836 29.807 35.6708 29.9076C35.4783 29.9959 35.2769 30.0944 35.1187 30.2346V30.3436C35.0973 30.3643 35.0756 30.385 35.0535 30.4065C34.9512 30.5093 34.8967 30.6234 34.8356 30.7524C34.6394 31.1521 34.416 31.5372 34.1841 31.9187C34.1061 32.0484 34.0318 32.1803 33.9574 32.3111C33.8584 32.4859 33.7583 32.6589 33.649 32.8271C33.554 32.9757 33.4664 33.129 33.3895 33.2885H33.3159L33.2953 33.375C33.2338 33.528 33.1484 33.6435 33.0512 33.7747C32.9725 33.8862 32.9073 34.0018 32.8422 34.1213C32.7851 34.2242 32.7244 34.3197 32.6537 34.4138H32.5801C32.5705 34.4454 32.561 34.477 32.551 34.5094C32.5061 34.6326 32.4509 34.7336 32.3821 34.8451C32.2396 35.0817 32.1126 35.3138 32.0188 35.5718C31.9934 35.6416 31.9665 35.7106 31.9393 35.7796C31.6227 36.6153 31.4829 37.5092 31.5789 38.3957C31.5815 38.4197 31.5841 38.4433 31.5867 38.468C31.6102 38.6555 31.6562 38.835 31.7037 39.0167C31.7552 39.2263 31.7913 39.4382 31.8296 39.6525C31.8454 39.7401 31.8613 39.8277 31.8771 39.9152C31.8837 39.9534 31.8907 39.9915 31.8977 40.0308C31.9084 40.1158 31.9084 40.1158 31.9536 40.1543C32.0946 40.8992 32.1362 41.6731 31.9168 42.4071C31.8844 42.5382 31.8546 42.6698 31.8248 42.8031C31.8001 42.9099 31.7759 43.0113 31.7343 43.1127C31.4483 43.8249 31.4118 44.6133 31.6927 45.3291C31.7144 45.3731 31.7379 45.4163 31.7626 45.4588C31.8119 45.5442 31.8546 45.6321 31.8973 45.7208C31.9919 45.9145 32.0913 46.095 32.2286 46.2622C32.2967 46.3494 32.3548 46.4409 32.4137 46.5343C32.5396 46.7327 32.6688 46.9304 32.837 47.0975C32.8753 47.1553 32.9128 47.2138 32.9496 47.2723C33.0475 47.426 33.1495 47.5757 33.2555 47.7228C33.3928 47.9154 33.5165 48.1152 33.6383 48.3187C33.7373 48.4833 33.8433 48.6406 33.9563 48.7947C34.1094 49.0058 34.2508 49.2234 34.3943 49.4451C34.5125 49.6271 34.6317 49.8081 34.7532 49.9865C34.7683 50.009 34.7837 50.0315 34.7992 50.0548C34.8754 50.1674 34.9527 50.279 35.0314 50.3898C35.0465 50.4109 35.0616 50.4323 35.0771 50.4541C35.1183 50.5119 35.1599 50.5696 35.2015 50.6274C35.2626 50.7204 35.3045 50.8069 35.3417 50.9108H35.4153C35.4536 50.9581 35.4901 51.0071 35.5258 51.0562C35.5633 51.0979 35.6008 51.1397 35.6384 51.1812C35.7249 51.2793 35.7812 51.3661 35.8202 51.4922H35.8938V51.5648H35.9674C36.0201 51.6244 36.0701 51.6862 36.1191 51.7487C36.245 51.9046 36.3727 52.0376 36.5276 52.1666C36.6163 52.2396 36.6955 52.3217 36.7768 52.402C36.8173 52.4347 36.8578 52.4674 36.8987 52.4997L36.9977 52.5837V52.6563C37.0245 52.6658 37.0514 52.6752 37.0794 52.6851C37.1843 52.7301 37.2579 52.7817 37.3473 52.8518C37.778 53.1679 38.2602 53.4259 38.757 53.6257C38.8818 53.6763 39.0033 53.7311 39.1244 53.7889C39.1604 53.806 39.1962 53.823 39.2333 53.8405C39.3154 53.891 39.3154 53.891 39.3522 54C38.9731 53.9484 38.6198 53.7773 38.2848 53.6003C38.2594 53.5869 38.234 53.5738 38.2079 53.56C37.8325 53.3594 37.4681 53.1421 37.1221 52.8987C37.026 52.834 36.927 52.7784 36.8254 52.7225C36.3911 52.4765 36.0046 52.152 35.6108 51.8468C35.5258 51.7803 35.44 51.7149 35.3539 51.6502C35.3325 51.6343 35.3108 51.6179 35.2887 51.6012C35.2298 51.5572 35.1709 51.5133 35.1117 51.4693C34.8393 51.2527 34.8393 51.2527 34.7863 51.095L34.7219 51.0631C34.6104 51.0082 34.5419 50.9286 34.455 50.8407C34.4256 50.812 34.3962 50.7833 34.3656 50.7539C34.1783 50.5711 33.9983 50.3869 33.8282 50.187C33.8047 50.1594 33.7811 50.1318 33.7568 50.1031C33.6692 49.9985 33.5827 49.8931 33.497 49.7874C33.4778 49.7641 33.459 49.7409 33.4395 49.7165C33.169 49.3822 32.9132 49.0407 32.6703 48.6882C32.5113 48.4557 32.3438 48.2304 32.1697 48.0088C31.9857 47.7668 31.9857 47.7668 31.9857 47.6818H31.912C31.862 47.6098 31.813 47.5368 31.7648 47.4638C31.7056 47.3951 31.6448 47.3279 31.583 47.2617C31.5524 47.2287 31.5215 47.1956 31.4899 47.1618C31.4266 47.0957 31.3614 47.031 31.2952 46.9678C31.2123 46.8824 31.2123 46.8824 31.1755 46.7734L31.1111 46.7414C30.9996 46.6866 30.9315 46.607 30.8443 46.5191C30.7758 46.4617 30.7066 46.4053 30.6367 46.3494C30.6201 46.3334 30.6036 46.3174 30.5866 46.3011V46.2284L30.4026 46.1557V46.083C30.3765 46.0736 30.3507 46.0645 30.3238 46.0547C30.2094 46.0064 30.1118 45.9472 30.0069 45.8807C29.648 45.6579 29.2708 45.4664 28.8917 45.2811C28.3984 45.0399 27.9273 44.7906 27.4967 44.4454C27.4602 44.4167 27.4234 44.388 27.3859 44.3586C27.14 44.1631 26.9221 43.9589 26.7197 43.7228C26.6707 43.669 26.6199 43.617 26.5677 43.5665C26.2335 43.2308 25.9383 42.8544 25.6953 42.4474C25.6526 42.3806 25.6096 42.3141 25.5665 42.2476C25.5341 42.1974 25.5341 42.1974 25.5014 42.1462C25.4616 42.0848 25.4215 42.023 25.381 41.962C25.2088 41.6993 25.0483 41.4279 24.8878 41.159C24.7553 40.9366 24.6202 40.7157 24.4829 40.4977C24.3607 40.3018 24.2437 40.1053 24.1344 39.9018C24.0563 39.7612 23.9742 39.6231 23.8918 39.484C23.8771 39.4592 23.862 39.4342 23.8469 39.4087C23.728 39.21 23.6076 39.0127 23.4869 38.8129C23.4501 38.7522 23.4133 38.6919 23.3765 38.6312C23.3585 38.601 23.3401 38.5712 23.3213 38.5403C23.1557 38.2678 23.1557 38.2678 23.1008 38.1777C23.0625 38.1145 23.0239 38.0513 22.9852 37.9881C22.9562 37.9405 22.9562 37.9405 22.9263 37.8918C22.909 37.8631 22.8914 37.8347 22.8733 37.8049C22.8097 37.6988 22.7497 37.5913 22.69 37.4834C22.6532 37.4187 22.6146 37.3547 22.5752 37.2912C22.4486 37.0859 22.3503 36.8987 22.2907 36.6626C22.2782 36.595 22.2782 36.595 22.2351 36.5587C22.2005 36.2338 22.2425 35.9991 22.4191 35.723L22.3455 35.6866C22.0949 35.7993 21.8818 35.9482 21.7566 36.1953H21.683C21.6716 36.2378 21.6716 36.2378 21.6602 36.2814C21.6503 36.3181 21.6403 36.3548 21.63 36.393C21.6201 36.4297 21.6105 36.4664 21.6002 36.5042C21.5726 36.595 21.5726 36.595 21.5358 36.6313C21.365 37.6959 21.4725 38.7714 21.6966 39.8215C21.7161 39.92 21.7298 40.0155 21.7382 40.1154C21.7511 40.2499 21.7861 40.3654 21.8321 40.4933C21.8773 40.6238 21.9156 40.7564 21.9543 40.8894C22.1114 41.4453 22.1114 41.4453 22.3444 41.9758C22.3901 42.0637 22.4269 42.1538 22.4648 42.2454C22.6407 42.6669 22.831 43.0811 23.0831 43.4662C23.1085 43.5062 23.1339 43.5462 23.1601 43.5872C23.3872 43.9426 23.6312 44.2812 23.8962 44.6119C23.9507 44.6809 24.0048 44.7503 24.0585 44.8201C24.0747 44.8408 24.0906 44.8618 24.1071 44.8833C24.1384 44.9243 24.1701 44.965 24.201 45.0061C24.2753 45.1024 24.3508 45.1889 24.438 45.2739C24.519 45.3549 24.519 45.3549 24.519 45.4276C24.5517 45.4414 24.5517 45.4414 24.5852 45.4555C24.6754 45.5053 24.7214 45.5555 24.7858 45.6343C24.9463 45.8214 25.127 45.9766 25.3232 46.1248C25.402 46.1913 25.4373 46.2415 25.4749 46.3359C25.3137 46.317 25.2316 46.2644 25.109 46.1612C25.0567 46.1176 25.0567 46.1176 25.0037 46.0729C24.9758 46.0489 24.9758 46.0489 24.9471 46.0245C24.8801 45.9679 24.8127 45.9123 24.745 45.8567C24.6975 45.8174 24.6504 45.7782 24.6029 45.739C24.5683 45.7106 24.5683 45.7106 24.5333 45.6816C24.4778 45.6347 24.424 45.586 24.3707 45.5366V45.4639C24.3493 45.4548 24.328 45.4457 24.3062 45.4363C24.2131 45.3858 24.1524 45.328 24.0788 45.2528C24.0549 45.2285 24.0309 45.2045 24.0066 45.1794C23.9812 45.1536 23.9558 45.1274 23.9293 45.1006C23.8211 44.993 23.7118 44.8862 23.6021 44.7801C23.3132 44.4992 23.0353 44.2205 22.7887 43.9008C22.7721 43.8794 22.7556 43.8579 22.7383 43.8358C22.6061 43.665 22.4762 43.4928 22.3481 43.3198C22.3301 43.2958 22.3124 43.2718 22.2936 43.2471C22.2425 43.1785 22.1917 43.1094 22.1409 43.0407C22.1258 43.0204 22.1103 42.9997 22.0949 42.9786C22.0135 42.8667 21.9521 42.7602 21.9064 42.6298H21.8328C21.8133 42.5956 21.7938 42.5615 21.7736 42.5262C21.7474 42.4805 21.7209 42.4347 21.6948 42.3893C21.6819 42.3667 21.669 42.3446 21.6561 42.3213C21.5939 42.213 21.5299 42.1084 21.4596 42.0048C21.4044 41.9231 21.3606 41.8461 21.3175 41.7581C21.2796 41.6935 21.2413 41.6292 21.2027 41.5652C21.001 41.2251 20.8015 40.8785 20.6469 40.5151C20.6274 40.4704 20.6068 40.4265 20.5847 40.3832C20.3002 39.82 20.0952 39.2242 19.9111 38.621C19.8842 38.5327 19.8555 38.4455 19.8254 38.3579C19.807 38.3034 19.7886 38.2489 19.7701 38.1944C19.7525 38.1421 19.7525 38.1421 19.7344 38.0887C19.6476 37.8224 19.5857 37.5582 19.535 37.2821C19.5235 37.1803 19.5235 37.1803 19.4757 37.1396C19.4599 37.0543 19.4459 36.9689 19.433 36.8831C19.4271 36.8446 19.4271 36.8446 19.4208 36.8054C19.4039 36.6953 19.3874 36.5848 19.3708 36.4747C19.3586 36.3944 19.3465 36.3141 19.334 36.2338C19.3303 36.2088 19.3266 36.1837 19.3226 36.1575C19.3126 36.0387 19.3126 36.0387 19.2545 35.9406C19.2423 35.8905 19.232 35.8403 19.2225 35.7895C19.2166 35.7582 19.2103 35.727 19.2041 35.695C19.1915 35.6296 19.1794 35.5645 19.1672 35.4991C19.1264 35.2884 19.0708 35.0886 18.9965 34.8851L18.9229 34.9214C18.8809 36.0514 18.8809 36.0514 18.9159 37.1814C18.9188 37.2279 18.9217 37.2744 18.9251 37.322C18.9409 37.5321 18.9648 37.7326 19.016 37.9361C19.0539 38.0963 19.0668 38.2617 19.0859 38.423C19.1058 38.5462 19.1396 38.6523 19.1801 38.77C19.2007 38.8833 19.2169 38.9971 19.2331 39.1112C19.246 39.2114 19.246 39.2114 19.3274 39.2787C19.3425 39.376 19.3546 39.4716 19.3642 39.5693C19.3829 39.7423 19.4212 39.8833 19.486 40.0417C19.5235 40.1474 19.532 40.2568 19.5482 40.3676C19.5721 40.4406 19.6001 40.5115 19.6288 40.5831C19.7087 40.784 19.7709 40.99 19.8349 41.1971C19.9038 41.4188 19.9755 41.6368 20.0675 41.8512C20.1217 41.9831 20.164 42.1182 20.2082 42.2545C20.2755 42.4576 20.3473 42.6578 20.4294 42.854C20.4728 42.9601 20.5144 43.0665 20.5556 43.1737C20.7514 43.6897 20.7514 43.6897 20.9863 44.1875C21.0753 44.3648 21.1427 44.5508 21.2126 44.7361C21.2281 44.7768 21.2435 44.8179 21.2597 44.86C21.2737 44.8978 21.2877 44.9352 21.3024 44.9741C21.3484 45.0813 21.4033 45.1776 21.4629 45.2775C21.524 45.3894 21.5649 45.5079 21.6072 45.6278C21.6808 45.8287 21.761 46.0202 21.8641 46.2091C21.9119 46.3061 21.9432 46.405 21.9775 46.5074C22.0113 46.5874 22.0459 46.6666 22.0809 46.7458C22.1781 46.9667 22.2682 47.1891 22.3544 47.4143C22.3879 47.5019 22.4217 47.5891 22.4552 47.6763C22.6573 48.1995 22.6573 48.1995 22.7375 48.4103C22.771 48.4986 22.8053 48.5869 22.8402 48.6748C22.9028 48.8376 22.9506 49.0044 22.9985 49.1726C23.0371 49.283 23.0813 49.3826 23.1317 49.488C23.2414 49.722 23.3136 49.9639 23.385 50.211C23.3978 50.2546 23.4107 50.2986 23.424 50.3436C23.5215 50.6761 23.5215 50.6761 23.5598 50.8305L23.3758 50.7579V50.6852H23.3021C23.2436 50.6223 23.2436 50.6223 23.1733 50.5329C23.1468 50.4995 23.1207 50.4661 23.0935 50.4316C23.0651 50.3952 23.0368 50.3589 23.0077 50.3215C22.9654 50.2677 22.9654 50.2677 22.9219 50.2125C22.8273 50.0918 22.7331 49.9705 22.6396 49.8491C22.6223 49.8266 22.6047 49.8041 22.5866 49.7808C22.3106 49.4237 22.0456 49.0578 21.7916 48.6871C21.7577 48.6381 21.7577 48.6381 21.7235 48.588C21.5512 48.3354 21.3882 48.0793 21.2303 47.8177C21.1946 47.7588 21.1946 47.7588 21.1585 47.6988C20.507 46.6197 19.9255 45.526 19.4727 44.3488C19.444 44.2743 19.4124 44.2009 19.3804 44.1282C19.2162 43.7431 19.0896 43.3434 18.9571 42.9437C18.9379 42.8878 18.9188 42.8318 18.8997 42.7759C18.8419 42.6051 18.7885 42.4332 18.7355 42.2599C18.7134 42.1883 18.691 42.1168 18.6681 42.0452C18.6111 41.8639 18.568 41.6844 18.5327 41.4965C18.5161 41.4097 18.5161 41.4097 18.479 41.3065C18.4359 41.179 18.4123 41.0518 18.3869 40.9214C18.3696 40.8312 18.3696 40.8312 18.3317 40.731C18.2854 40.5882 18.2644 40.4454 18.2419 40.2986C18.2224 40.1892 18.1959 40.0831 18.1679 39.9759C18.126 39.8026 18.0951 39.6268 18.0623 39.4527C18.0542 39.4102 18.0465 39.368 18.0384 39.3244C17.9692 38.9502 17.9059 38.576 17.8437 38.2017C17.798 37.9281 17.7491 37.6567 17.6902 37.3842C17.674 37.3032 17.6611 37.2214 17.6501 37.1396C17.6449 37.0292 17.6449 37.0292 17.5956 36.9878C17.5713 36.8522 17.5499 36.7167 17.529 36.5808C17.5047 36.4275 17.4734 36.2956 17.4116 36.1521C17.388 36.0645 17.3659 35.9766 17.3449 35.8886C17.2919 35.6728 17.2338 35.4599 17.1701 35.2455C17.1627 35.2212 17.1554 35.1965 17.148 35.1714C17.1259 35.0984 17.1035 35.0253 17.0803 34.9527C17.0685 34.9149 17.0685 34.9149 17.0564 34.8764C16.9828 34.6489 16.8896 34.4294 16.7928 34.2114C16.7777 34.1766 16.7623 34.1413 16.7468 34.1053C16.6382 33.8586 16.5142 33.6257 16.381 33.3895C16.3519 33.3358 16.3224 33.282 16.2934 33.2282C16.0232 32.7522 15.6824 32.338 15.3032 31.9383C15.2388 31.8624 15.2388 31.8624 15.202 31.7534C15.1534 31.7283 15.1041 31.7043 15.0548 31.6807C14.9455 31.5957 14.8476 31.514 14.7534 31.4126C14.4699 31.1513 14.1166 30.9947 13.7669 30.8458V30.7731C13.7412 30.764 13.7154 30.7553 13.6889 30.7458C13.4003 30.6219 13.2104 30.4137 13.0116 30.1827C12.9605 30.1249 12.9071 30.0715 12.8508 30.0184C12.7728 29.9388 12.7728 29.9388 12.7728 29.8662H12.6992C12.6528 29.8073 12.6528 29.8073 12.6001 29.7252C12.5803 29.6947 12.5604 29.6645 12.5398 29.6333C12.5195 29.602 12.4989 29.5711 12.4779 29.5392C12.1401 29.045 11.7897 28.5545 11.3737 28.1221C11.306 28.0462 11.2387 27.9695 11.1717 27.8928C11.1168 27.8304 11.1168 27.8304 11.0539 27.7733C11.006 27.7224 11.006 27.7224 11.006 27.6498C10.9843 27.64 10.9622 27.6301 10.9398 27.62C10.8606 27.5782 10.8065 27.5357 10.7421 27.4746C10.7208 27.4547 10.6994 27.4347 10.6777 27.414C10.6442 27.3823 10.6442 27.3823 10.6104 27.35C10.4307 27.1825 10.2519 27.0266 10.0509 26.8849C9.98427 26.8366 9.91728 26.7879 9.85066 26.7396C9.45682 26.4569 9.04458 26.2055 8.61394 25.9766C8.57714 25.9555 8.57714 25.9555 8.53959 25.9344C8.40893 25.8636 8.30808 25.8254 8.1568 25.8178C7.9481 25.8029 7.77769 25.7062 7.61942 25.5772C7.52114 25.4384 7.48029 25.3483 7.509 25.1776C7.62273 25.0355 7.74493 24.9559 7.91387 24.8869H8.02429C7.99558 24.796 7.99558 24.796 7.95068 24.7052C7.91424 24.6932 7.8778 24.6812 7.84026 24.6689C7.70555 24.4985 7.66874 24.3113 7.67904 24.0984C7.70518 23.9378 7.77916 23.8459 7.90394 23.7438C8.19471 23.5421 8.47812 23.5745 8.82043 23.605C9.2069 23.6341 9.57129 23.6301 9.93936 23.5054C9.97727 23.4935 10.0152 23.4815 10.0542 23.4687C10.3137 23.3826 10.5474 23.2813 10.7867 23.1505C11.062 23.0008 11.3461 22.8714 11.6332 22.7399C11.7002 22.7086 11.7661 22.6748 11.8316 22.641C11.9284 22.596 11.9284 22.596 12.0388 22.596V22.5233C12.0694 22.5197 12.1003 22.5161 12.132 22.5124C12.4871 22.4539 12.6325 22.3278 12.8497 22.051L13.0337 21.8693C13.09 21.8053 13.1453 21.741 13.2005 21.6764C13.2756 21.591 13.3576 21.5132 13.4386 21.4333C13.4666 21.3988 13.4949 21.3642 13.5236 21.3286C13.5969 21.2396 13.676 21.168 13.7651 21.0946C13.9024 20.9798 14.0043 20.853 14.1114 20.7095C14.1884 20.6154 14.2752 20.5453 14.3702 20.47C14.4622 20.3879 14.5296 20.2913 14.6017 20.1921C14.6716 20.0994 14.7526 20.0217 14.8373 19.9421L14.9293 19.8513C14.9885 19.7928 15.0485 19.7343 15.1089 19.6765C15.1862 19.5984 15.258 19.5188 15.3298 19.436C15.4111 19.3426 15.4924 19.2612 15.5896 19.1838C15.7309 19.0693 15.8358 18.9327 15.9477 18.7914C16.0254 18.6947 16.109 18.6104 16.1995 18.5254C16.2488 18.4771 16.2978 18.4288 16.3467 18.3801L17.3773 17.3627C17.4064 17.3336 17.4355 17.3046 17.4657 17.2748C17.7483 16.9979 18.0435 16.7479 18.3711 16.5263C18.4311 16.4852 18.4311 16.4852 18.4922 16.4438C18.8021 16.2356 18.8021 16.2356 18.886 16.2356V16.1629L18.9435 16.1357C19.0616 16.0757 19.1757 16.0103 19.2909 15.9449C19.2733 15.776 19.2733 15.776 19.2173 15.6179C19.1547 14.8077 19.6185 14.2772 20.1191 13.6849C20.171 13.6232 20.2225 13.561 20.2733 13.4989L20.3594 13.3932C20.3837 13.3634 20.408 13.3336 20.433 13.303C20.5144 13.2093 20.602 13.1236 20.6907 13.0367C20.7341 12.9888 20.7772 12.9404 20.8195 12.8914C20.9189 12.7769 21.0238 12.6705 21.1324 12.5644L21.2325 12.4655C21.5373 12.1647 21.5373 12.1647 21.6337 12.0695C21.7073 11.9957 21.7754 11.9209 21.8428 11.8417C21.9502 11.7189 22.0651 11.6146 22.1902 11.5096C22.3606 11.3606 22.5178 11.1975 22.6761 11.0372C22.7942 10.9191 22.9131 10.8138 23.0441 10.7102L23.1247 10.6285C23.2444 10.5133 23.3724 10.4137 23.5039 10.3127C23.5981 10.2386 23.5981 10.2386 23.6842 10.1496C23.7909 10.0456 23.9039 9.95844 24.0239 9.86979C24.1454 9.77968 24.2624 9.69102 24.3692 9.58347C24.5164 9.45957 24.667 9.34075 24.8182 9.22448C24.8491 9.20087 24.8491 9.20087 24.8808 9.17689C25.0372 9.0588 25.197 8.94616 25.3593 8.83716C25.4333 8.78701 25.4333 8.78701 25.4885 8.72961C25.5581 8.66093 25.6335 8.60934 25.7145 8.55411C25.7472 8.53158 25.78 8.50942 25.8139 8.48653C25.9287 8.4095 26.0443 8.3332 26.1602 8.25762C26.2489 8.19876 26.3361 8.13808 26.4234 8.0774C26.5842 7.96549 26.7488 7.86012 26.9166 7.75693C26.9817 7.71623 27.0469 7.67554 27.1117 7.63412C27.546 7.35652 27.995 7.09636 28.4551 6.85656C28.4813 6.84275 28.5074 6.82931 28.5343 6.81514C28.9575 6.59386 29.3771 6.37185 29.8151 6.17928C29.92 6.13241 30.0238 6.08372 30.128 6.03503C30.3647 5.92421 30.6028 5.82647 30.8494 5.736C30.9816 5.6844 31.1056 5.62154 31.2322 5.55687C31.3257 5.51218 31.4185 5.47657 31.5164 5.44205C31.6559 5.393 31.795 5.34286 31.9323 5.29162C32.5838 5.05254 32.5838 5.05254 32.893 4.98678C32.9993 4.96243 33.1002 4.92791 33.2036 4.8934C33.844 4.70264 34.4918 4.56348 35.147 4.44285C35.239 4.42504 35.3296 4.40506 35.4209 4.38399C35.5935 4.34583 35.7657 4.32222 35.9398 4.30187C35.9719 4.29787 36.0039 4.29424 36.0366 4.29024C36.104 4.28225 36.171 4.27426 36.2383 4.26626C36.3399 4.25427 36.4415 4.24228 36.5427 4.22993C37.4482 4.12201 37.4482 4.12201 37.8641 4.1271C37.9031 4.12746 37.9031 4.12746 37.9432 4.12746C38.0058 4.12783 38.0684 4.12855 38.131 4.12928V4.05661C38.1619 4.05479 38.1619 4.05479 38.1935 4.05261C38.4077 4.03917 38.6205 4.02573 38.8377 4.01192C38.9179 4.00683 38.9978 4.00175 39.078 3.99666C39.1928 3.98939 39.3077 3.98212 39.4225 3.97486C39.4586 3.97268 39.4947 3.9705 39.5318 3.96832C39.565 3.96614 39.5981 3.96396 39.6323 3.96178C39.6618 3.95996 39.6908 3.95814 39.7214 3.95596C39.7895 3.95415 39.7895 3.95415 39.8256 3.91127C39.915 3.90074 40.0037 3.89238 40.0935 3.88511C40.1336 3.88184 40.1336 3.88184 40.1749 3.87821C40.2901 3.8684 40.4053 3.85895 40.5205 3.8495C40.6044 3.8426 40.6883 3.83533 40.7722 3.82843C40.8116 3.82516 40.8116 3.82516 40.8517 3.82225C40.975 3.82116 40.975 3.82116 41.077 3.76593C41.1473 3.7554 41.218 3.7474 41.2886 3.73977C41.353 3.73287 41.353 3.73287 41.4186 3.7256C41.5098 3.71616 41.6011 3.70635 41.6924 3.6969C41.7568 3.68999 41.7568 3.68999 41.8223 3.68273C41.882 3.67655 41.882 3.67655 41.9427 3.67001C42.0318 3.66601 42.0318 3.66601 42.0708 3.62023C42.1201 3.61042 42.1698 3.60243 42.2195 3.59552C42.2651 3.58898 42.2651 3.58898 42.3119 3.58208C42.3759 3.573 42.44 3.56391 42.504 3.55483C42.674 3.52976 42.8286 3.49669 42.9899 3.43892C43.0425 3.42657 43.0955 3.4153 43.1485 3.40477C43.3215 3.36807 43.4853 3.31429 43.6527 3.25725C43.7499 3.22455 43.8475 3.19185 43.945 3.15951C43.9693 3.15115 43.9939 3.14316 44.019 3.13444C44.1968 3.07521 44.1968 3.07521 44.2785 3.07521V3.00254L44.2814 3Z" fill="white"/>
</svg>
