<svg width="34" height="34" viewBox="0 0 34 34" fill="none" xmlns="http://www.w3.org/2000/svg">
<path d="M17 34L15.0247 32.0359C12.0583 29.0592 9.60526 26.5011 7.6655 24.3619C5.72576 22.2226 4.18866 20.3187 3.05419 18.6501C1.91969 16.9816 1.12704 15.4596 0.676244 14.0842C0.225414 12.7088 0 11.313 0 9.89699C0 7.08778 0.85631 4.73598 2.56893 2.84159C4.28155 0.947198 6.40769 0 8.94735 0C10.5097 0 11.986 0.404148 13.3763 1.21244C14.7666 2.0207 15.9745 3.17979 17 4.68971C18.0255 3.17979 19.2334 2.0207 20.6237 1.21244C22.014 0.404148 23.4903 0 25.0527 0C27.5923 0 29.7184 0.947198 31.4311 2.84159C33.1437 4.73598 34 7.08778 34 9.89699C34 11.313 33.7746 12.7088 33.3238 14.0842C32.873 15.4596 32.0803 16.9816 30.9458 18.6501C29.8113 20.3187 28.2771 22.2226 26.3431 24.3619C24.4091 26.5011 21.9531 29.0592 18.9753 32.0359L17 34ZM17 29.988C19.8632 27.1381 22.2193 24.6956 24.0684 22.6604C25.9176 20.6251 27.379 18.857 28.4527 17.3559C29.5263 15.8549 30.272 14.522 30.6895 13.3571C31.1071 12.1923 31.3158 11.0389 31.3158 9.89699C31.3158 7.91758 30.7193 6.26808 29.5263 4.94847C28.3334 3.62887 26.8421 2.96906 25.0527 2.96906C23.6394 2.96906 22.3334 3.41253 21.1347 4.29947C19.936 5.18638 18.9868 6.42034 18.287 8.00136H15.713C15.0018 6.40768 14.0497 5.17053 12.8567 4.28992C11.6637 3.40935 10.3606 2.96906 8.94735 2.96906C7.16935 2.96906 5.68098 3.62887 4.48224 4.94847C3.28353 6.26808 2.68417 7.91758 2.68417 9.89699C2.68417 11.0389 2.89295 12.1923 3.31049 13.3571C3.72803 14.522 4.47365 15.8549 5.54734 17.3559C6.62102 18.857 8.08243 20.622 9.93156 22.6509C11.7807 24.6798 14.1368 27.1255 17 29.988Z" fill="white"/>
</svg>
