<svg width="48" height="48" viewBox="0 0 48 48" fill="none" xmlns="http://www.w3.org/2000/svg">
<g clip-path="url(#clip0_674_11960)">
<path d="M5.33331 3.46667H9.28536C10.6635 3.46667 11.3513 3.46667 11.9006 3.76806C12.1271 3.89273 12.3322 4.05272 12.5082 4.24201C12.9336 4.70138 13.1013 5.36978 13.4343 6.70657L13.8766 8.47357C14.1221 9.4555 14.2461 9.94647 14.4357 10.3597C14.7597 11.0647 15.2479 11.682 15.8593 12.1598C16.4708 12.6376 17.1877 12.9621 17.9502 13.1062C18.3974 13.1888 18.903 13.1888 19.9165 13.1888" stroke="white" stroke-width="2" stroke-linecap="round"/>
<path d="M39.3609 35.0634H13.9619C13.6095 35.0634 13.432 35.0634 13.2959 35.0489C12.9584 35.0112 12.6326 34.9033 12.3394 34.732C12.0462 34.5607 11.7921 34.3299 11.5936 34.0544C11.3951 33.7789 11.2565 33.4649 11.1867 33.1326C11.117 32.8002 11.1176 32.457 11.1887 32.1249C11.2448 31.9098 11.3104 31.6974 11.3855 31.4881C11.5119 31.1138 11.5727 30.9267 11.6432 30.759C11.9891 29.9303 12.5579 29.2136 13.2864 28.6885C14.0149 28.1633 14.8746 27.8503 15.7702 27.784C15.9501 27.7719 16.1494 27.7719 16.5407 27.7719H29.6388" stroke="white" stroke-width="2" stroke-linecap="round" stroke-linejoin="round"/>
<path d="M30.9221 27.7722H22.284C19.3285 27.7722 17.8507 27.7722 16.7108 27.1038C16.2302 26.821 15.8018 26.4576 15.4445 26.0295C14.5938 25.0135 14.3507 23.5552 13.8671 20.641C13.3737 17.6879 13.1282 16.2101 13.7139 15.1164C13.9576 14.6599 14.2957 14.2606 14.7056 13.9449C15.6875 13.189 17.1847 13.189 20.1791 13.189H36.3568C39.881 13.189 41.6432 13.189 42.3578 14.341C43.0699 15.4955 42.28 17.0705 40.705 20.2229L39.6185 22.3982C38.3109 25.0135 37.6571 26.3211 36.4832 27.0454C35.3068 27.7722 33.846 27.7722 30.9221 27.7722Z" stroke="white" stroke-width="2" stroke-linecap="round"/>
<path d="M38.8601 42.3553C38.8601 43.4215 37.9958 44.2859 36.9296 44.2859C35.8634 44.2859 34.999 43.4215 34.999 42.3553C34.999 41.2891 35.8634 40.4248 36.9296 40.4248C37.9958 40.4248 38.8601 41.2891 38.8601 42.3553Z" fill="white" stroke="white"/>
<path d="M19.4164 42.3553C19.4164 43.4215 18.5521 44.2859 17.4859 44.2859C16.4197 44.2859 15.5554 43.4215 15.5554 42.3553C15.5554 41.2891 16.4197 40.4248 17.4859 40.4248C18.5521 40.4248 19.4164 41.2891 19.4164 42.3553Z" fill="white" stroke="white"/>
</g>
<defs>
<clipPath id="clip0_674_11960">
<rect width="42" height="42" fill="white" transform="translate(3 3)"/>
</clipPath>
</defs>
</svg>
