<svg width="34" height="39" viewBox="0 0 34 39" fill="none" xmlns="http://www.w3.org/2000/svg">
<path d="M13.5254 1.67323C11.0566 1.67323 9.05063 3.66989 9.05063 6.13859C9.05063 8.60728 11.0566 10.6039 13.5254 10.6039H20.4749C22.9436 10.6039 24.9496 8.60728 24.9496 6.13859C24.9496 3.66989 22.9436 1.67323 20.4749 1.67323H13.5254Z" stroke="black" stroke-width="2" stroke-linecap="round"/>
<path d="M12.3515 16.1966C12.3515 17.1302 11.5947 17.887 10.6611 17.887C9.72753 17.887 8.9707 17.1302 8.9707 16.1966C8.9707 15.263 9.72753 14.5062 10.6611 14.5062C11.5947 14.5062 12.3515 15.263 12.3515 16.1966Z" fill="black"/>
<path d="M12.3515 23.8034C12.3515 24.737 11.5947 25.4939 10.6611 25.4939C9.72753 25.4939 8.9707 24.737 8.9707 23.8034C8.9707 22.8698 9.72753 22.113 10.6611 22.113C11.5947 22.113 12.3515 22.8698 12.3515 23.8034Z" fill="black"/>
<path d="M12.3515 30.5651C12.3515 31.4987 11.5947 32.2555 10.6611 32.2555C9.72753 32.2555 8.9707 31.4987 8.9707 30.5651C8.9707 29.6315 9.72753 28.8747 10.6611 28.8747C11.5947 28.8747 12.3515 29.6315 12.3515 30.5651Z" fill="black"/>
</svg>
