<svg width="228" height="96" viewBox="0 0 228 96" fill="none" xmlns="http://www.w3.org/2000/svg">
<path d="M194.5 1.17817C193.758 1.55449 192.51 2.06521 191.679 2.28024C187.669 3.35545 186.392 5.58648 188.055 8.54328C188.708 9.75288 188.738 9.75288 190.491 9.88728L192.273 10.0217L192.481 12.8441C193.045 19.7253 195.837 23.5692 201.481 25.2357C202.58 25.5852 203.56 26.0153 203.649 26.2303C203.857 26.741 202.58 27.7087 201.986 27.4937C201.748 27.413 200.263 27.198 198.689 27.0367C190.966 26.2572 184.134 29.6709 182.233 35.2889C180.213 41.2562 182.501 47.4924 188.263 51.7125C189.332 52.492 193.015 54.7231 196.431 56.6584C205.045 61.5775 207.985 63.4322 210.391 65.6363C213.926 68.8619 215.589 72.4907 215.589 77.1141C215.589 83.2696 212.441 88.2424 206.916 90.7691C202.015 93.0002 195.154 93.3227 189.748 91.5755C186.154 90.3928 182.055 87.221 179.916 83.9685C179.352 83.1352 178.817 82.4632 178.699 82.4632C178.313 82.4632 178.075 83.7803 178.223 85.2856C178.372 87.0328 179.501 88.4843 182.56 90.8766C185.025 92.812 187.431 94.0485 190.342 94.8818C192.273 95.4194 193.164 95.5 197.025 95.5C201.986 95.4731 203.827 95.1506 207.421 93.6453C211.55 91.8981 215.589 88.323 217.253 84.963C218.352 82.7589 218.886 80.1515 218.886 77.2216C218.916 71.1736 216.807 66.8459 211.698 62.4376C208.669 59.8303 206.827 58.6207 200.441 55.1263C188.649 48.6751 186.837 47.1698 185.441 42.8421C184.728 40.6648 184.936 37.1436 185.857 35.2889C188.233 30.4236 195.421 28.3807 202.104 30.6117C204.599 31.445 206.53 32.6546 208.906 34.8588C210.035 35.9071 211.075 36.7673 211.193 36.7673C211.55 36.7673 211.49 34.2405 211.104 33.3535C210.926 32.9503 209.53 31.445 207.985 30.0204C206.441 28.5957 205.193 27.3055 205.193 27.1711C205.193 27.0098 205.401 26.741 205.639 26.5529C205.995 26.2841 206.5 26.4991 208.58 27.87C211.669 29.886 212.203 30.0741 214.342 29.886C216.48 29.6709 217.936 30.0204 221.827 31.6601C224.916 32.9772 227.649 33.6761 227.946 33.246C228.213 32.8159 227.56 32.0901 224.441 29.3753C217.876 23.6229 215.233 20.9081 213.659 18.2469C211.847 15.2364 209.857 13.3279 206.976 11.9033C205.817 11.3119 204.599 10.5324 204.302 10.1561C203.976 9.75288 203.619 8.54328 203.411 7.19928C203.025 4.56504 202.015 2.68344 200.322 1.44697C198.748 0.29113 196.372 0.183609 194.5 1.17817ZM199.906 2.89848C200.916 3.59737 201.57 5.18328 201.926 7.68312C202.372 10.7474 202.788 11.285 206.114 13.1398C211.758 16.2847 213.213 18.7308 213.213 25.0476C213.213 28.2194 213.005 28.6226 211.609 27.9775C207.688 26.1497 200.827 19.591 200.114 16.9836C199.906 16.2578 199.58 15.7471 199.223 15.6665C198.124 15.3439 197.649 16.2309 198.57 16.903C198.837 17.118 199.372 17.9244 199.758 18.7039C200.144 19.4834 200.916 20.7737 201.481 21.5263C203.322 23.9993 202.639 24.7519 200.025 23.1929C199.104 22.6553 197.768 21.6069 197.055 20.8812C195.778 19.591 194.203 16.6342 194.203 15.5052C194.203 14.887 195.451 13.7311 197.53 12.3871C199.401 11.2044 199.966 10.0217 199.788 7.62936C199.698 6.39288 199.401 5.31768 198.986 4.56504C198.392 3.48985 198.362 2.36089 198.926 2.36089C199.075 2.36089 199.52 2.60281 199.906 2.89848ZM196.995 3.32857C197.085 3.57048 197.174 4.00056 197.174 4.29624C197.174 4.6188 197.53 5.39832 197.946 6.07032C198.778 7.36056 198.748 8.40888 197.857 9.9948C196.877 11.6882 194.827 12.6559 194.382 11.6076C193.966 10.613 194.411 3.9468 194.976 3.1404C195.243 2.73721 196.788 2.8716 196.995 3.32857ZM192.659 4.05432C192.837 4.86073 192.481 5.74776 191.649 6.6348C190.758 7.60248 189.629 7.73688 189.154 6.93048C188.768 6.28536 189.54 4.40376 190.461 3.8124C191.293 3.30168 192.54 3.43608 192.659 4.05432ZM217.758 25.9884C218.441 26.4185 219.599 27.3055 220.312 27.9775C221.381 28.9989 221.56 29.3215 221.411 29.886C221.173 30.7999 220.461 30.773 219.154 29.7785C218.589 29.3215 218.025 28.9721 217.847 28.9721C217.282 28.9721 215.649 27.6281 215.292 26.8485C214.995 26.1765 214.995 25.9346 215.292 25.6121C215.827 25.0207 216.362 25.1013 217.758 25.9884Z" fill="white"/>
<path d="M67.4624 28.3268C67.3139 28.5956 67.2248 30.5041 67.2545 32.5201C67.2545 34.563 67.1654 36.2295 67.0763 36.2295C66.6308 36.2295 65.2645 35.0737 64.8486 34.321C63.809 32.547 61.0764 33.7834 60.1259 36.4177C59.8883 37.1434 59.2051 40.369 58.6111 43.6215C57.3041 50.7716 57.3338 50.7447 57.0368 50.7447C56.7398 50.7447 52.4032 46.1751 52.1656 45.5838C52.0468 45.3418 52.225 44.5354 52.5517 43.7828C54.3339 39.482 51.7497 36.4714 46.3142 36.4983C43.9676 36.5252 42.8092 36.8746 40.6707 38.1918C38.8588 39.3207 38.1162 39.4014 36.4232 38.6218C34.7895 37.8692 32.1163 37.6004 31.849 38.1918C31.3143 39.482 34.4331 48.6481 36.9578 53.2177C37.5222 54.2122 37.9677 55.0993 37.9677 55.1799C37.9677 55.2874 37.344 55.5831 36.5717 55.9057C34.3737 56.7658 31.7896 58.5399 29.4134 60.7978C24.75 65.2599 22.0768 70.6359 21.3342 77.0333C20.9778 80.1514 20.8293 80.7159 20.057 81.9792C19.6412 82.6512 18.9877 83.1888 18.1263 83.592C16.9085 84.1028 16.6115 84.1296 14.8294 83.8877C10.8789 83.3232 7.61161 81.7373 6.69083 79.9633C5.71064 78.1354 6.18588 75.9313 8.53239 70.9316C10.0472 67.7329 9.66109 66.3889 7.37399 66.6845C5.79975 66.8727 4.58194 67.8673 2.56216 70.609C-0.140778 74.3453 -0.705128 78.0817 0.869112 81.7911C1.9087 84.2103 4.61164 86.5488 8.26507 88.1616C13.9383 90.6615 19.463 91.7904 27.3342 92.113C31.5519 92.2743 32.0866 92.3549 32.8292 92.8925C34.9974 94.4516 34.8192 94.4247 43.73 94.5053C48.3042 94.5591 52.3438 94.5322 52.7299 94.4247C53.1161 94.344 53.4131 94.1021 53.4131 93.8602C53.4131 93.1882 54.1557 93.1613 55.4923 93.7796C56.918 94.4516 59.2348 94.7204 61.2843 94.4516C62.8585 94.2365 63.1556 93.672 62.6209 91.8442C62.3833 90.984 61.8189 90.2583 60.6902 89.2637C59.7992 88.4842 58.9675 87.624 58.7893 87.3552C58.314 86.5488 56.2942 74.1841 56.2942 71.9799C56.2645 69.8564 56.6507 68.8618 58.4625 66.4695C58.9081 65.8781 59.6209 64.7761 60.0665 63.9965C60.4823 63.217 61.5813 61.8461 62.5021 60.9053C64.9377 58.4593 65.205 57.7604 65.5912 52.8951C66.0664 47.1428 66.8684 41.8474 67.1357 43.1108C67.1654 43.2452 67.1951 54.7767 67.1951 68.7543L67.2248 94.129L67.9971 94.3978C68.4129 94.5322 69.1258 94.5591 69.5713 94.4516L70.3436 94.2903V82.6244C70.3436 73.6196 70.4327 70.9047 70.7297 70.7165C70.908 70.5553 71.9475 70.3671 73.0168 70.2865C77.5613 69.9101 81.8682 68.2167 85.8187 65.2599C91.1058 61.3085 93.7196 57.169 94.4324 51.6586C95.2344 45.5031 93.0067 39.6702 88.0464 34.9662C83.4128 30.5041 78.0366 28.3268 70.8782 27.9774C67.9377 27.8161 67.6704 27.843 67.4624 28.3268ZM74.3832 30.9879C78.5118 31.633 81.9573 33.2727 85.0464 36.0414C89.086 39.697 90.8087 43.1646 91.0463 48.2449C91.3137 53.0564 90.0365 56.7927 86.888 60.5828C83.6207 64.5073 77.591 67.4103 72.5119 67.4909L70.4921 67.5447L70.403 49.0513L70.3436 30.5847H71.0565C71.4426 30.5847 72.9277 30.7729 74.3832 30.9879ZM64.5516 37.1166C64.908 37.6273 64.9377 38.1111 64.7001 40.0196C64.5516 41.283 64.2843 42.9764 64.106 43.7828C63.9278 44.5623 63.6605 47.3578 63.512 49.9383C63.1259 56.0401 62.9773 57.0615 62.2645 57.8679C61.4625 58.8087 61.1952 58.7281 60.8388 57.3841C60.6605 56.7658 60.215 55.4756 59.8289 54.5079L59.1457 52.7607L59.6803 50.2071C59.9774 48.8094 60.6308 45.2881 61.1358 42.4119C61.6704 39.5358 62.2348 37.009 62.3833 36.8209C62.8882 36.2833 64.0466 36.4446 64.5516 37.1166ZM48.7498 38.9444C50.3834 39.697 50.8884 41.4711 50.027 43.3527C49.4923 44.5086 48.8389 44.8042 45.4231 45.4762C42.6013 46.0407 41.8588 46.4708 42.2152 47.3578C42.4528 47.8954 43.9973 47.9223 46.433 47.3847C49.7894 46.659 49.7003 46.6321 52.8487 49.9652C57.9279 55.4218 58.7596 56.7658 58.7596 59.7764C58.7596 61.4429 58.2546 63.1095 57.3338 64.3997C57.0071 64.8567 56.7992 64.9373 56.5022 64.6954C56.2645 64.5341 56.0863 64.1578 56.0863 63.889C56.0863 63.6202 55.7299 63.1901 55.3141 62.9213C54.5418 62.4913 54.5121 62.4913 53.9774 63.0826C52.8784 64.3191 53.2943 70.609 55.2249 81.8717C55.8784 85.8231 56.5913 89.21 56.7695 89.3981C56.9477 89.6132 57.6012 89.9895 58.1952 90.2852C59.3536 90.8228 59.918 91.7367 59.3833 92.2205C58.9081 92.6506 56.9477 92.0055 56.0566 91.1453C55.3735 90.4733 50.7696 81.0116 45.6904 69.8295C44.0568 66.2276 43.3439 65.3405 42.3934 65.7975C42.0964 65.9588 41.8291 66.2545 41.8291 66.4695C41.8291 66.6845 42.7498 68.9425 43.9082 71.4961C46.0171 76.2269 46.1062 76.8183 44.7993 76.8183C44.4429 76.8183 44.0865 76.3345 43.6112 75.1517C42.7201 72.9476 40.5221 70.9047 38.4727 70.394C35.5618 69.6413 30.9282 70.5284 27.7797 72.41C26.948 72.8938 26.6807 73.2433 26.7401 73.6733C26.8589 74.5604 28.1658 74.5604 30.1856 73.7271C32.9183 72.5713 34.6707 72.1949 36.542 72.3025C38.5915 72.4369 39.5122 72.9745 40.8489 74.7754C42.1261 76.4689 42.5122 77.8935 42.3637 80.1783C42.2152 82.033 41.5914 83.4845 39.7202 86.1725C38.9479 87.2746 39.1558 88.2154 40.3439 88.8874C40.8192 89.1293 42.9578 89.9357 45.0963 90.6346C47.2052 91.3335 48.9577 92.0592 48.9577 92.1936C48.9577 92.4087 47.9478 92.4356 45.7795 92.328C44.0568 92.2205 41.2053 92.1399 39.4528 92.1399C36.6311 92.1399 36.1559 92.0592 35.2648 91.5216C34.344 90.984 34.1955 90.6884 33.6014 88.3767C32.4727 84.1565 32.3836 83.8877 31.6708 83.7264C30.3935 83.4039 30.3638 83.7533 31.0173 88.2692L31.1955 89.64L29.5322 89.8282C28.6411 89.9357 26.7698 89.9357 25.4332 89.8551C9.83931 88.7261 1.16614 83.592 2.59187 76.3613C2.978 74.5335 4.87897 70.8241 5.38391 70.9853C5.79975 71.1197 5.82945 71.0122 4.67105 73.969C3.51265 76.9796 3.42354 78.8881 4.37402 80.689C5.68094 83.1082 9.33436 85.1511 13.6412 85.85C20.0867 86.8983 23.0273 84.721 23.5916 78.4849C24.3639 69.8564 28.552 63.0826 35.8885 58.6474C38.0271 57.3303 38.74 57.2228 39.8093 57.9754C40.7004 58.6205 42.0073 58.9431 42.2449 58.5668C42.3637 58.4324 41.3538 56.3357 40.0469 53.9165C37.4925 49.1588 35.6806 44.5892 35.3836 42.0894C35.1757 40.3422 35.3242 40.2346 36.839 41.0679C38.3241 41.8743 39.334 41.7668 41.0568 40.5303C41.9182 39.9658 43.0469 39.2938 43.6112 39.0788C44.829 38.595 47.829 38.5143 48.7498 38.9444ZM49.522 83.8608C52.6408 89.9895 52.7596 90.2583 52.1953 90.2583C51.3042 90.2583 42.4231 87.4359 42.4231 87.1402C42.4231 86.8714 43.7003 83.9415 45.8092 79.3719C46.0468 78.8612 46.3736 78.4311 46.4924 78.4311C46.6409 78.4311 48.0072 80.8772 49.522 83.8608Z" fill="white"/>
<path d="M107.769 28.112L106.135 28.3002L106.046 61.1744L105.987 94.0217L106.759 94.2905C107.561 94.5862 131.145 94.6668 131.947 94.398C132.541 94.183 132.6 92.3283 132.036 91.9251C131.798 91.7369 127.848 91.6025 121.105 91.5488C112.67 91.495 110.442 91.3875 110.026 91.0918C109.581 90.7692 109.551 89.7209 109.611 80.071L109.7 69.4265H118.907H128.115L128.204 68.0288L128.294 66.6041L118.997 66.5504L109.7 66.4697L109.611 48.7021L109.551 30.9344L111.987 30.7731C113.353 30.6656 118.492 30.585 123.393 30.585C130.521 30.585 132.392 30.5043 132.511 30.2355C132.808 29.5367 132.363 28.4883 131.739 28.3271C130.789 28.0851 109.67 27.9239 107.769 28.112Z" fill="white"/>
<path d="M142.105 28.0849C137.382 28.1656 136.372 28.2462 135.927 28.6225C135.63 28.8644 135.392 29.2676 135.392 29.5096C135.392 30.4504 136.016 30.5848 140.59 30.6116C143.026 30.6385 146.798 30.7192 148.907 30.8267L152.768 30.988L152.917 62.5719L153.065 94.1559L154.491 94.2365C155.679 94.3172 155.887 94.2365 155.887 93.8333C155.887 93.5645 155.887 79.2913 155.887 62.115L155.857 30.9073L156.481 30.7192C156.837 30.6116 160.521 30.5848 164.679 30.6385C172.817 30.7192 172.788 30.7192 172.817 29.3214C172.817 27.8968 172.877 27.8968 159.808 27.9505C153.154 28.0043 145.194 28.058 142.105 28.0849Z" fill="white"/>
</svg>
