<svg width="52" height="32" viewBox="0 0 52 32" fill="none" xmlns="http://www.w3.org/2000/svg">
<path d="M5.46035 14.5998C6.56135 14.3264 7.86314 15.4473 8.36786 17.1215C8.87165 18.7862 8.40215 20.3629 7.30207 20.6458C6.21145 20.9278 4.9002 19.8078 4.38602 18.1346C3.87276 16.4709 4.3612 14.8923 5.46035 14.5998ZM12.2266 13.9317C13.3702 14.0028 14.1404 15.4571 13.9723 17.1881C13.7767 18.9314 12.7127 20.2859 11.5795 20.2235C10.4367 20.162 9.67603 18.7067 9.86306 16.9739C10.0397 15.2324 11.1037 13.8779 12.2266 13.9317ZM0.821419 19.5132C1.85508 18.9365 3.4039 19.6456 4.31327 21.0571C5.17808 22.5021 5.08502 24.1191 4.06082 24.6948C3.03663 25.2705 1.49819 24.5701 0.605905 23.1375C-0.286378 21.705 -0.175306 20.0765 0.821419 19.5132ZM17.8553 17.8314C18.9405 18.1891 19.3594 19.7653 18.7565 21.3455C18.1535 22.9256 16.7773 23.9138 15.6628 23.5493C14.5483 23.1847 14.1493 21.6163 14.7229 20.0293C15.3466 18.4665 16.7313 17.4677 17.8553 17.8314ZM17.2684 28.3304C17.3929 29.2286 16.8073 30.2937 16.0294 30.7483C14.4111 31.7023 12.2482 30.2693 10.365 30.4552C8.48183 30.6411 6.6198 32.5393 4.87225 31.8499C3.88076 31.4732 3.108 30.2903 3.13149 29.2419C3.16452 27.7955 4.78472 26.8607 5.68738 25.7159C6.89176 24.2313 7.59387 21.5952 9.49599 21.4074C11.3886 21.2206 12.6323 23.6257 14.0434 24.8908C15.2063 25.9577 17.0519 26.773 17.2684 28.3304Z" fill="white"/>
<path d="M42.0686 0.0355246C43.1691 0.31085 43.8099 1.91593 43.4916 3.63659C43.1768 5.3483 42.0398 6.52461 40.9357 6.25821C39.8404 5.99544 39.1907 4.38674 39.5003 2.66247C39.8063 0.947129 40.9609 -0.221932 42.0686 0.0355246ZM48.3692 2.62412C49.3499 3.22471 49.3673 4.87528 48.4269 6.32995C47.4564 7.78269 45.8943 8.48267 44.9187 7.89464C43.9344 7.303 43.9258 5.65604 44.8839 4.20861C45.8367 2.74863 47.3988 2.04865 48.3692 2.62412ZM35.7115 2.20841C36.8911 2.18335 37.9391 3.53967 38.0994 5.21775C38.2049 6.90453 37.3831 8.29351 36.2123 8.32218C35.0416 8.35086 33.9988 7.00709 33.8633 5.31838C33.7277 3.62968 34.5708 2.23901 35.7115 2.20841ZM51.5732 8.72516C52.3711 9.55226 52.0215 11.1457 50.7647 12.2623C49.508 13.379 47.8367 13.6077 47.0159 12.7608C46.1951 11.9139 46.5587 10.3367 47.7927 9.20021C49.0599 8.10864 50.7436 7.87465 51.5732 8.72516ZM46.2522 17.7518C45.9518 18.6061 44.946 19.2746 44.0489 19.3117C42.1787 19.3963 40.9176 17.1099 39.164 16.3894C37.4104 15.669 34.8926 16.4756 33.6595 15.0432C32.9532 14.2434 32.8094 12.8321 33.3096 11.9143C34.0003 10.6482 35.8633 10.5815 37.1866 9.99144C38.9326 9.24218 40.7601 7.23661 42.5313 7.96432C44.2937 8.6884 44.2958 11.404 44.9676 13.1883C45.5101 14.6801 46.7726 16.2701 46.2522 17.7518Z" fill="white"/>
</svg>
