<svg width="36" height="36" viewBox="0 0 36 36" fill="none" xmlns="http://www.w3.org/2000/svg">
<path fill-rule="evenodd" clip-rule="evenodd" d="M34.4816 16.5307C33.9329 16.6364 33.404 16.2809 33.2584 15.7414C31.6061 9.61713 26.534 4.23545 19.6748 2.64077C19.1387 2.51612 18.7773 1.9987 18.8794 1.45783C18.9797 0.926859 19.4894 0.572701 20.0165 0.691271C27.7754 2.43635 33.4468 8.48731 35.2613 15.3259C35.4075 15.877 35.0415 16.4229 34.4816 16.5307Z" fill="#124B4B"/>
<path fill-rule="evenodd" clip-rule="evenodd" d="M27.5435 16.53C26.988 16.6064 26.4803 16.2181 26.3175 15.6815C25.4613 12.8604 22.8081 10.2399 19.6835 9.35285C19.1545 9.20266 18.7851 8.69347 18.8789 8.1516C18.9711 7.61886 19.4763 7.25505 19.9999 7.38976C23.9882 8.41594 27.3571 11.7201 28.3546 15.3786C28.5043 15.9276 28.1072 16.4524 27.5435 16.53Z" fill="#124B4B"/>
<path fill-rule="evenodd" clip-rule="evenodd" d="M20.2322 16.5818C19.8814 16.6301 19.5557 16.4 19.3038 16.1511C19.048 15.8982 18.7586 15.5398 18.82 15.1853L18.8789 14.8448C18.9711 14.312 19.4868 13.9419 19.967 14.1903C20.5139 14.4732 20.9764 14.9105 21.2775 15.4236C21.5656 15.9144 21.1655 16.4534 20.6018 16.531L20.2322 16.5818Z" fill="#124B4B"/>
<path fill-rule="evenodd" clip-rule="evenodd" d="M7.96458 6.19546C8.51394 6.42092 8.96648 6.74722 9.24934 7.01624L13.2569 10.8277C14.0292 11.5622 14.2473 12.4137 14.1156 13.1831C13.9947 13.889 13.5958 14.4504 13.2569 14.7727L11.4524 16.4889C11.1598 16.7672 11.1311 17.0843 11.2283 17.2807C12.4989 19.8494 15.6868 22.6774 18.4654 24.5072C18.7974 24.7258 19.2803 24.6945 19.6214 24.3701L21.1698 22.8975C21.5307 22.5542 22.0133 22.3688 22.393 22.2594C22.7993 22.1423 23.2321 22.0728 23.6086 22.0322C24.5057 21.9354 25.3174 22.2981 25.8776 22.8309L29.9552 26.7089C29.9637 26.717 29.9725 26.7254 29.9815 26.734C30.2166 26.9571 30.6229 27.3428 30.8897 27.8573C31.1941 28.4441 31.3068 29.1682 31.0004 29.9901C30.8537 30.3837 30.5993 30.6766 30.3857 30.8797L28.6193 32.5597C28.3224 32.842 28.0862 33.0749 27.8588 33.2992C27.6818 33.4737 27.5101 33.643 27.3192 33.8263C26.9313 34.1989 26.5397 34.5534 26.126 34.8337C25.7011 35.1217 25.2295 35.3482 24.6763 35.4467C24.1237 35.5451 23.5592 35.5034 22.9642 35.3525C12.5874 32.7208 5.71486 25.494 1.62301 18.3594C1.07071 17.3962 0.715173 15.979 0.572603 14.6863C0.499873 14.0268 0.478201 13.3622 0.524004 12.7611C0.568257 12.1804 0.681228 11.5732 0.937495 11.0848C1.06953 10.8332 1.32454 10.503 1.57894 10.1924C1.8548 9.85556 2.20061 9.45813 2.57385 9.04395C3.31997 8.21601 4.19984 7.29449 4.89703 6.61466C5.1031 6.41372 5.43204 6.14185 5.8948 6.0187C6.67789 5.81031 7.4143 5.96962 7.96458 6.19546Z" fill="#124B4B"/>
</svg>
