<svg width="26" height="22" viewBox="0 0 26 22" fill="none" xmlns="http://www.w3.org/2000/svg">
<path d="M4.24557 1.03368C2.48584 1.35348 0.811528 2.82281 0.187933 4.58601C0.0256272 5.05274 0 5.31204 0 6.21957C0 7.1876 0.0256272 7.36046 0.230645 7.89633C1.26427 10.5584 4.00638 11.7339 6.51785 10.5843C6.88517 10.4201 7.24395 10.2818 7.31229 10.2818C7.50022 10.2818 7.81629 10.6621 7.88463 10.9906C7.98714 11.4487 7.83338 12.8489 7.59419 13.6872C6.79975 16.4444 4.85208 18.6743 1.92204 20.135L1.05926 20.5672V21.2586C1.05926 21.6389 1.07634 21.9501 1.09343 21.9501C1.11905 21.9501 1.60597 21.7772 2.17831 21.5611C6.0651 20.1177 8.7645 17.8532 10.3619 14.7071C11.8654 11.7339 12.1558 7.83583 11.088 5.11324C10.7207 4.18843 10.285 3.53155 9.55894 2.80553C8.363 1.60413 7.15853 1.05961 5.55256 0.990467C5.08273 0.973181 4.48476 0.990467 4.24557 1.03368Z" fill="#FFC54B"/>
<path d="M18.4599 1.03368C16.7002 1.35348 15.0259 2.82281 14.4023 4.58601C14.24 5.05274 14.2144 5.31204 14.2144 6.21957C14.2144 7.1876 14.24 7.36046 14.445 7.89633C15.4786 10.5584 18.2207 11.7339 20.7322 10.5843C21.0995 10.4201 21.4583 10.2818 21.5266 10.2818C21.7146 10.2818 22.0306 10.6621 22.099 10.9906C22.2015 11.4487 22.0477 12.8489 21.8085 13.6872C21.0141 16.4444 19.0664 18.6743 16.1364 20.135L15.2736 20.5672V21.2586C15.2736 21.6389 15.2907 21.9501 15.3078 21.9501C15.3334 21.9501 15.8203 21.7772 16.3927 21.5611C20.2795 20.1177 22.9789 17.8532 24.5763 14.7071C26.0797 11.7339 26.3702 7.83583 25.3024 5.11324C24.9351 4.18843 24.4994 3.53155 23.7733 2.80553C22.5774 1.60413 21.3729 1.05961 19.7669 0.990467C19.2971 0.973181 18.6991 0.990467 18.4599 1.03368Z" fill="#FFC54B"/>
</svg>
