<svg width="16" height="16" viewBox="0 0 16 16" fill="none" xmlns="http://www.w3.org/2000/svg">
<path d="M6.30161 3.29952L6.30158 3.29958L6.05569 3.7404C6.04167 3.76555 6.02784 3.79042 6.01418 3.81501C5.7858 4.22589 5.60181 4.55691 5.30665 4.78144L5.30596 4.78196C5.00681 5.00872 4.64239 5.09065 4.19737 5.19069C4.17106 5.1966 4.14447 5.20258 4.11759 5.20866C4.11753 5.20867 4.11747 5.20868 4.11741 5.2087L3.64059 5.31666L3.6404 5.3167C2.70102 5.52902 2.05473 5.67674 1.61045 5.85188C1.17585 6.0232 1.06339 6.17157 1.0204 6.30939C0.976001 6.45269 0.986688 6.65196 1.24592 7.06381C1.50866 7.48122 1.95055 7.99997 2.59009 8.74744L2.59033 8.74772L2.9155 9.12833C2.91561 9.12846 2.91572 9.12859 2.91583 9.12871C2.91583 9.12872 2.91583 9.12872 2.91583 9.12872C2.93378 9.14968 2.95154 9.17038 2.9691 9.19085C3.27392 9.54614 3.51871 9.83146 3.62938 10.1917C3.74036 10.5478 3.70361 10.9238 3.65718 11.3987C3.65451 11.426 3.65181 11.4537 3.6491 11.4817L3.64906 11.4821L3.59961 11.9886C3.5996 11.9887 3.59958 11.9888 3.59957 11.9889C3.50316 12.9863 3.43727 13.6795 3.45968 14.1806C3.48204 14.6808 3.58827 14.8419 3.69441 14.9224C3.79147 14.996 3.95274 15.0521 4.40433 14.9226C4.86228 14.7913 5.4686 14.5139 6.34812 14.1091L6.34832 14.109L6.79456 13.9038C6.79469 13.9038 6.79482 13.9037 6.79495 13.9036C6.81925 13.8924 6.84329 13.8813 6.86709 13.8703C7.28341 13.6774 7.62608 13.5187 8.00018 13.5187C8.37427 13.5187 8.71695 13.6774 9.13326 13.8703C9.15693 13.8812 9.18083 13.8923 9.20499 13.9034C9.20526 13.9036 9.20552 13.9037 9.20579 13.9038L9.65249 14.1088L9.65305 14.1091C10.5323 14.514 11.1383 14.7915 11.5962 14.9228C12.0477 15.0522 12.209 14.9959 12.3064 14.9219L12.3068 14.9216C12.4123 14.8416 12.5185 14.681 12.5408 14.1806C12.5631 13.6795 12.4972 12.9861 12.4007 11.9886L12.3513 11.4813L12.3513 11.481C12.3486 11.4533 12.3459 11.426 12.3433 11.3991C12.2966 10.9226 12.2599 10.5468 12.3706 10.1896L12.3707 10.1892C12.482 9.83149 12.7256 9.54709 13.0298 9.19193C13.0478 9.17085 13.0661 9.14953 13.0846 9.12792L13.0848 9.1276L13.4102 8.74754C13.4102 8.74747 13.4103 8.74741 13.4103 8.74735C14.0498 7.99959 14.4917 7.48068 14.7544 7.06324C15.0139 6.65104 15.0243 6.45209 14.9799 6.30933C14.9369 6.17152 14.8246 6.02336 14.3903 5.85217C13.9461 5.67709 13.3 5.52938 12.3605 5.31666L11.8838 5.20873L6.30161 3.29952ZM6.30161 3.29952C6.78491 2.43287 7.12077 1.83309 7.41951 1.44301C7.71798 1.05329 7.88481 1 8.00018 1C8.11554 1 8.28238 1.05329 8.58084 1.44301C8.87958 1.83309 9.21544 2.43287 9.69874 3.29952L9.69877 3.29958M6.30161 3.29952L9.69877 3.29958M9.69877 3.29958L9.94467 3.7404M9.69877 3.29958L9.94467 3.7404M9.94467 3.7404C9.9447 3.74046 9.94473 3.74052 9.94477 3.74058C9.95875 3.76567 9.97254 3.79048 9.98618 3.81501M9.94467 3.7404L9.98618 3.81501M9.98618 3.81501C10.2146 4.22589 10.3985 4.55691 10.6937 4.78144M9.98618 3.81501L10.6937 4.78144M10.6937 4.78144C10.9923 5.00861 11.3579 5.09066 11.8027 5.19047M10.6937 4.78144L11.8027 5.19047M11.8027 5.19047C11.8293 5.19646 11.8563 5.20251 11.8835 5.20866L11.8027 5.19047Z" stroke="#FFC54B"/>
</svg>
