<svg width="36" height="36" viewBox="0 0 36 36" fill="none" xmlns="http://www.w3.org/2000/svg">
<g clip-path="url(#clip0_617_1732)">
<path d="M18 0.5C13.3598 0.5 8.90547 2.34488 5.62695 5.62559C2.34505 8.90759 0.500909 13.3586 0.5 18C0.5 22.6394 2.3457 27.0937 5.62695 30.3744C8.90547 33.6551 13.3598 35.5 18 35.5C22.6402 35.5 27.0945 33.6551 30.373 30.3744C33.6543 27.0937 35.5 22.6394 35.5 18C35.5 13.3606 33.6543 8.90629 30.373 5.62559C27.0945 2.34488 22.6402 0.5 18 0.5Z" fill="url(#paint0_linear_617_1732)"/>
<path d="M8.42148 17.8152C13.5238 15.5927 16.9254 14.1273 18.6262 13.4194C23.4879 11.3979 24.4969 11.0468 25.1559 11.0349C25.3008 11.0326 25.6234 11.0684 25.834 11.2386C26.009 11.3822 26.0582 11.5763 26.0828 11.7126C26.1047 11.8488 26.1348 12.1591 26.1102 12.4014C25.8477 15.1686 24.7074 21.8837 24.1277 24.9831C23.8844 26.2945 23.4004 26.7342 22.9328 26.7771C21.9156 26.8706 21.1445 26.1055 20.1602 25.4605C18.6207 24.4507 17.7512 23.8223 16.2555 22.8371C14.5273 21.6985 15.6484 21.0726 16.6328 20.05C16.8898 19.7823 21.3687 15.7094 21.4535 15.34C21.4644 15.2938 21.4754 15.1216 21.3715 15.0308C21.2703 14.9397 21.1199 14.9709 21.0105 14.9955C20.8547 15.0305 18.3965 16.6569 13.6277 19.8744C12.9305 20.3541 12.2988 20.5878 11.7301 20.5755C11.1066 20.5621 9.90351 20.2223 9.00937 19.9319C7.91562 19.5756 7.04335 19.3872 7.11992 18.7821C7.1582 18.4671 7.59296 18.1447 8.42148 17.8152Z" fill="white"/>
</g>
<defs>
<linearGradient id="paint0_linear_617_1732" x1="1750.5" y1="0.5" x2="1750.5" y2="3500.5" gradientUnits="userSpaceOnUse">
<stop stop-color="#2AABEE"/>
<stop offset="1" stop-color="#229ED9"/>
</linearGradient>
<clipPath id="clip0_617_1732">
<rect width="35" height="35" fill="white" transform="translate(0.5 0.5)"/>
</clipPath>
</defs>
</svg>
