<svg width="19" height="10" viewBox="0 0 19 10" fill="none" xmlns="http://www.w3.org/2000/svg">
<path d="M0.852268 9.65669C0.740604 9.54859 0.652012 9.42017 0.591562 9.27878C0.531115 9.1374 0.5 8.98583 0.5 8.83276C0.5 8.67968 0.531115 8.52812 0.591562 8.38673C0.652012 8.24535 0.740604 8.11693 0.852268 8.00883L8.8236 0.272264C8.91235 0.185957 9.01776 0.117485 9.1338 0.0707664C9.24984 0.0240478 9.37424 0 9.49987 0C9.6255 0 9.7499 0.0240478 9.86594 0.0707664C9.98199 0.117485 10.0874 0.185957 10.1761 0.272264L18.1475 8.00883C18.6175 8.46501 18.6175 9.2005 18.1475 9.65669C17.6774 10.1129 16.9196 10.1129 16.4496 9.65669L9.49508 2.91629L2.54054 9.666C2.0801 10.1129 1.31271 10.1129 0.852268 9.65669Z" fill="white"/>
</svg>
