<svg version="1.1" id="Layer_1" xmlns="http://www.w3.org/2000/svg"  x="0px" y="0px"
	 width="100%" viewBox="0 0 1560 214" enableBackground="new 0 0 1560 214" >
<path fill="#F9F9F9" opacity="1.000000" stroke="none" 
	d="
M1.000000,79.000000 
	C1.000000,53.006321 1.000000,27.012642 1.000000,1.050818 
	C521.000000,1.050818 1041.000000,1.050818 1561.000000,1.050818 
	C1561.000000,34.093586 1561.000000,67.085541 1560.648193,100.558014 
	C1525.626953,122.509460 1491.221436,144.422562 1456.218628,165.335648 
	C1415.509644,189.657959 1372.827515,192.364639 1330.419312,170.912445 
	C1298.089966,154.558624 1267.079468,135.589157 1235.552979,117.658691 
	C1188.709106,91.016380 1142.188232,91.344978 1095.963257,119.118797 
	C1079.840088,128.806274 1063.835327,138.690735 1047.754761,148.449326 
	C999.845947,177.523026 940.362305,173.384125 897.049988,137.931091 
	C882.621094,126.120461 868.228577,114.264297 853.906555,102.324417 
	C811.274475,66.783096 748.758301,62.578274 701.876831,92.125305 
	C692.032654,98.329605 682.659485,105.642929 672.129272,110.336090 
	C620.204712,133.478119 570.764160,126.221535 524.243347,95.551659 
	C499.761292,79.411285 475.305878,63.463341 448.721588,50.848148 
	C416.214294,35.422268 383.846802,33.694969 350.295807,47.620701 
	C322.637726,59.100498 296.711365,73.522507 271.613159,89.655426 
	C254.128098,100.894661 237.385620,113.674767 218.859772,122.828720 
	C180.554062,141.756302 140.749329,143.707703 101.172630,126.066101 
	C76.567749,115.098282 52.480282,102.971931 28.125307,91.440063 
	C19.135565,87.183495 10.044728,83.140442 1.000000,79.000000 
z"/>
<path fill="#4C8B8C" opacity="1.000000" stroke="none" 
	d="
M1.000000,79.468658 
	C10.044728,83.140442 19.135565,87.183495 28.125307,91.440063 
	C52.480282,102.971931 76.567749,115.098282 101.172630,126.066101 
	C140.749329,143.707703 180.554062,141.756302 218.859772,122.828720 
	C237.385620,113.674767 254.128098,100.894661 271.613159,89.655426 
	C296.711365,73.522507 322.637726,59.100498 350.295807,47.620701 
	C383.846802,33.694969 416.214294,35.422268 448.721588,50.848148 
	C475.305878,63.463341 499.761292,79.411285 524.243347,95.551659 
	C570.764160,126.221535 620.204712,133.478119 672.129272,110.336090 
	C682.659485,105.642929 692.032654,98.329605 701.876831,92.125305 
	C748.758301,62.578274 811.274475,66.783096 853.906555,102.324417 
	C868.228577,114.264297 882.621094,126.120461 897.049988,137.931091 
	C940.362305,173.384125 999.845947,177.523026 1047.754761,148.449326 
	C1063.835327,138.690735 1079.840088,128.806274 1095.963257,119.118797 
	C1142.188232,91.344978 1188.709106,91.016380 1235.552979,117.658691 
	C1267.079468,135.589157 1298.089966,154.558624 1330.419312,170.912445 
	C1372.827515,192.364639 1415.509644,189.657959 1456.218628,165.335648 
	C1491.221436,144.422562 1525.626953,122.509460 1560.648193,101.019272 
	C1561.000000,138.990814 1561.000000,176.981644 1561.000000,214.952301 
	C1041.000000,214.952301 521.000000,214.952301 1.000000,214.952301 
	C1.000000,169.915512 1.000000,124.926414 1.000000,79.468658 
z"/>
</svg>