<svg xmlns="http://www.w3.org/2000/svg" version="1.1" width="1440px" height="100px" style="shape-rendering:geometricPrecision; text-rendering:geometricPrecision; image-rendering:optimizeQuality; fill-rule:evenodd; clip-rule:evenodd" xmlns:xlink="http://www.w3.org/1999/xlink" stroke="">
<g><path style="opacity:1" fill="#fefefe" d="M -0.0,-0.5 C 118.167,-0.5 236.833,-0.5 355.5,-0.5C 332.085,4.70089 309.752,13.2009 288.5,25C 264.147,38.5038 240.814,53.5038 218.5,70C 183.117,91.4832 145.451,96.8166 105.5,86C 70.0246,69.7618 34.6912,53.2618 -0.5,36.5C -0.5,24.1667 -0.5,11.8333 -0.5,-0.5 Z"/></g>
<g><path style="opacity:1" fill="#318c8d" d="M 355.5,-0.5 C 362.167,-0.5 368.833,-0.5 375.5,-0.5C 398.334,4.56677 420,13.0668 440.5,25C 457.346,34.9202 473.679,45.5869 489.5,57C 525.543,78.6728 563.876,84.0061 604.5,73C 613.185,70.1578 621.519,66.4912 629.5,62C 676.853,25.2251 726.52,21.8918 778.5,52C 795.791,65.6223 812.791,79.6223 829.5,94C 872.562,124.604 917.562,127.604 964.5,103C 986.744,88.4365 1009.74,75.1032 1033.5,63C 1064.53,52.3079 1095.2,53.3079 1125.5,66C 1158,84.0802 1190.33,102.414 1222.5,121C 1262.16,140.718 1301.49,140.051 1340.5,119C 1373.53,98.489 1406.53,77.989 1439.5,57.5C 1439.5,198.167 1439.5,338.833 1439.5,479.5C 959.5,479.5 479.5,479.5 -0.5,479.5C -0.5,331.833 -0.5,184.167 -0.5,36.5C 34.6912,53.2618 70.0246,69.7618 105.5,86C 145.451,96.8166 183.117,91.4832 218.5,70C 240.814,53.5038 264.147,38.5038 288.5,25C 309.752,13.2009 332.085,4.70089 355.5,-0.5 Z"/></g>
<g><path style="opacity:1" fill="#fefefe" d="M 375.5,-0.5 C 730.167,-0.5 1084.83,-0.5 1439.5,-0.5C 1439.5,18.8333 1439.5,38.1667 1439.5,57.5C 1406.53,77.989 1373.53,98.489 1340.5,119C 1301.49,140.051 1262.16,140.718 1222.5,121C 1190.33,102.414 1158,84.0802 1125.5,66C 1095.2,53.3079 1064.53,52.3079 1033.5,63C 1009.74,75.1032 986.744,88.4365 964.5,103C 917.562,127.604 872.562,124.604 829.5,94C 812.791,79.6223 795.791,65.6223 778.5,52C 726.52,21.8918 676.853,25.2251 629.5,62C 621.519,66.4912 613.185,70.1578 604.5,73C 563.876,84.0061 525.543,78.6728 489.5,57C 473.679,45.5869 457.346,34.9202 440.5,25C 420,13.0668 398.334,4.56677 375.5,-0.5 Z"/></g>
</svg>
